<svg id="Camada_1" data-name="Camada 1" xmlns="http://www.w3.org/2000/svg" width="564" height="457" viewBox="0 0 564 457">
  <title>bg</title>
  <g>
    <path d="M37.4368,304.4522c10.7617-8.6339,13.9848-22.918,8.3487-35.56a63.43,63.43,0,0,0-10.16-15.428c-4.9307-5.733-10.0881-11.2711-15.1487-16.8923-3.3665-3.7393-6.7582-7.4586-9.1688-11.9328-2.8406-5.272-3.7326-10.7411-1.7246-16.5237,3.2721-9.4226,14.22-12.9865,22.0235-7.0035,5.5746,4.274,7.1829,10.21,6.1729,16.9523-.6671,4.4538-2.9824,8.1856-5.5844,11.7311-1.3089,1.7837-2.8116,3.4251-4.307,5.2279l1.5567,1.4892a49.0887,49.0887,0,0,0,7.43-9.9453c4.4314-8.2229,4.8428-16.3681-.8279-24.2588a15.8167,15.8167,0,0,0-20.5113-4.7458C9.68,200.9171,6.93,206.3536,6.357,212.9244A22.5659,22.5659,0,0,0,11.1,228.5737c3.5157,4.7326,7.4549,9.1677,11.4044,13.5569,5.3412,5.9358,10.8937,11.681,15.6262,18.1406a49.2749,49.2749,0,0,1,6.779,12.2377,26.539,26.539,0,0,1-11.4647,31.767c-7.8786,4.4632-15.764,4.3056-23.2667-1.0084a23.6754,23.6754,0,0,1-8.73-12.538c-2.404-7.45-1.2971-14.631,1.7713-21.6226a56.7073,56.7073,0,0,1,10.7224-15.5794c.2755-.2979.5471-.6.8156-.8941l-1.3961-1.4442a1.2956,1.2956,0,0,0-.2646.1265c-.2008.1781-.4007.3585-.5871.5513A55.0866,55.0866,0,0,0,.9055,269.0293C.5729,269.83.2778,270.63,0,271.43v21.6727a32.821,32.821,0,0,0,2.1285,4.4735,23.49,23.49,0,0,0,12.0521,10.7569C22.6357,311.5577,30.498,310.019,37.4368,304.4522Z" fill="currentColor"/>
    <path d="M37.3291,70.71C32.3984,64.9766,27.241,59.4386,22.18,53.8174c-3.3665-3.7394-6.7582-7.4587-9.1689-11.9329C10.171,36.6125,9.279,31.1434,11.287,25.3608c3.2721-9.4226,14.22-12.9864,22.0235-7.0035,5.5746,4.274,7.1829,10.21,6.173,16.9523-.6672,4.4538-2.9826,8.1856-5.5845,11.7311-1.3089,1.7836-2.8115,3.4251-4.3071,5.2279l1.5568,1.4892a49.0887,49.0887,0,0,0,7.43-9.9453c4.4314-8.223,4.8428-16.3681-.8279-24.2588A15.8166,15.8166,0,0,0,17.24,14.8079c-5.8564,3.3549-8.6062,8.7915-9.179,15.3623A22.5654,22.5654,0,0,0,12.8042,45.82c3.5157,4.7327,7.4549,9.1677,11.4044,13.5569C29.55,65.3123,35.1024,71.0574,39.8348,77.517a49.2749,49.2749,0,0,1,6.779,12.2377,26.539,26.539,0,0,1-11.4647,31.767c-7.8786,4.4633-15.764,4.3056-23.2667-1.0085a23.6744,23.6744,0,0,1-8.73-12.5379c-2.404-7.45-1.2971-14.631,1.7713-21.6226A56.7094,56.7094,0,0,1,15.6457,70.7733c.2755-.298.5471-.6.8156-.8941L15.0652,68.435a1.2983,1.2983,0,0,0-.2646.1265c-.2008.1781-.4006.3585-.5871.5513A55.0884,55.0884,0,0,0,2.6094,86.2751,37.8283,37.8283,0,0,0,0,95.6485v8.2394a30.4784,30.4784,0,0,0,3.8324,10.9339,23.4905,23.4905,0,0,0,12.0521,10.7569c8.4551,3.2249,16.3174,1.6862,23.2562-3.8807,10.7617-8.6339,13.9848-22.9179,8.3487-35.56A63.4311,63.4311,0,0,0,37.3291,70.71Z" fill="currentColor"/>
    <path d="M37.0356,6.5865a23.3607,23.3607,0,0,0-26.3868,1.17A28.6717,28.6717,0,0,0,0,26.869v8.2328a33.7526,33.7526,0,0,0,1.1142,5.4388A43.0871,43.0871,0,0,0,9.7371,56.4231C15.4994,63.16,21.5732,69.63,27.5168,76.2106c3.7323,4.1327,7.4914,8.2351,10.053,13.2651,3.611,7.0911,2.76,15.04-2.3525,20.5911a13.5543,13.5543,0,0,1-9.3483,4.6692,14.1172,14.1172,0,0,1-14.1307-8.9338c-2.4554-5.7117-2.0377-11.3742.5423-16.9423a43.8908,43.8908,0,0,1,7.8362-11.0337c.8186-.8935.3-1.2652-.22-1.8513-.7109-.8017-1.071-.0881-1.449.3215a48.8063,48.8063,0,0,0-7.4648,10.3344C7.8029,92.68,6.942,99.0131,9.1943,105.54c4.1568,12.0465,18.0886,15.9557,27.3358,6.5916,5.4121-5.48,6.8587-14.8665,3.59-22.22a46.4783,46.4783,0,0,0-8.1339-12.0808c-5.0246-5.603-10.2034-11.0673-15.2994-16.6064-4.3275-4.7038-8.3922-9.6169-11.1855-15.42C2.31,39.1739.9155,32.25,2.5047,24.915,3.9206,18.38,7.134,12.9546,12.7365,9.2142a21.7552,21.7552,0,0,1,26.5871,1.97c8.2963,7.3708,11.3269,18.6535,6.8641,29.9537-2.7087,6.8586-7.1292,12.59-12.0022,18.0076-1.3164,1.4635-1.3574,1.4987.4549,2.9864.28-.3763.5663-.786.8772-1.1764,2.5569-3.2114,5.3116-6.2861,7.633-9.6591,3.4814-5.0585,6.2575-10.5279,6.8507-16.7633C51.124,22.733,47.1186,13.19,37.0356,6.5865Z" fill="currentColor"/>
    <path d="M33.533,336.8075c4.1326-3.7323,8.2349-7.4914,13.265-10.0529,7.0911-3.611,15.0406-2.76,20.5911,2.3524a13.5547,13.5547,0,0,1,4.6692,9.3483,14.1171,14.1171,0,0,1-8.9337,14.1308c-5.7118,2.4553-11.3743,2.0377-16.9424-.5423a43.8892,43.8892,0,0,1-11.0336-7.8362c-.8936-.8187-1.2653-.3-1.8514.2195-.8017.7108-.088,1.0711.3216,1.449a48.8057,48.8057,0,0,0,10.3343,7.4648c6.0489,3.1806,12.3823,4.0414,18.9094,1.7892,12.0464-4.1569,15.9557-18.0887,6.5917-27.3358-5.4806-5.4122-14.8666-6.8588-22.22-3.59a46.475,46.475,0,0,0-12.0809,8.134c-5.603,5.0244-11.0673,10.2033-16.6064,15.2993-4.7038,4.3275-9.6168,8.3923-15.42,11.1855Q1.5748,359.57,0,360.1752v2.3421a43.0393,43.0393,0,0,0,13.7454-7.93C20.4818,348.825,26.9518,342.7512,33.533,336.8075Z" fill="currentColor"/>
    <path d="M72.1441,360.4919A23.4893,23.4893,0,0,0,82.901,348.44c3.2249-8.4551,1.6862-16.3174-3.8807-23.2562-8.6339-10.7617-22.9179-13.9848-35.56-8.3487a63.4292,63.4292,0,0,0-15.428,10.16c-5.733,4.9307-11.2711,10.0881-16.8924,15.1487A67.0523,67.0523,0,0,1,0,350.8554v2.67A27.1075,27.1075,0,0,0,3.1418,351.52c4.7327-3.5157,9.1677-7.4549,13.5569-11.4044C22.6346,334.7745,28.38,329.222,34.8393,324.49a49.2781,49.2781,0,0,1,12.2377-6.779,26.5389,26.5389,0,0,1,31.767,11.4647c4.4633,7.8786,4.3057,15.7641-1.0084,23.2667a23.6752,23.6752,0,0,1-12.538,8.7305c-7.45,2.4039-14.631,1.297-21.6226-1.7714a56.7073,56.7073,0,0,1-15.5794-10.7224c-.2979-.2755-.6-.5471-.8941-.8156l-1.4442,1.3961a1.284,1.284,0,0,0,.1266.2646c.178.2008.3584.4007.5512.5871A55.0886,55.0886,0,0,0,43.5974,361.715C53.2853,365.7366,62.8586,365.8134,72.1441,360.4919Z" fill="currentColor"/>
    <path d="M19.4538,329.6839c-.3762-.28-.786-.5663-1.1764-.8771-3.2114-2.5569-6.2861-5.3116-9.6591-7.633A45.9079,45.9079,0,0,0,0,316.3983v2.4065c6.18,2.7366,11.4634,6.8333,16.4673,11.334C17.931,331.4552,17.9661,331.4962,19.4538,329.6839Z" fill="currentColor"/>
    <path d="M32.4817,241.8992c-1.3165,1.4637-1.3574,1.4988.4548,2.9865.28-.3762.5663-.786.8772-1.1764,2.5568-3.2114,5.3115-6.2861,7.633-9.6592,3.4813-5.0584,6.2575-10.5279,6.8507-16.7632,1.1227-11.8-2.8827-21.3424-12.9657-27.9462a23.36,23.36,0,0,0-26.3868,1.17A27.9033,27.9033,0,0,0,0,202.7959v22.318a43.0437,43.0437,0,0,0,8.0332,14.0634c5.7623,6.7363,11.8361,13.2064,17.78,19.7875,3.7323,4.1327,7.4915,8.235,10.0529,13.2651,3.6111,7.0911,2.76,15.0405-2.3523,20.5911a13.5551,13.5551,0,0,1-9.3484,4.6692,14.117,14.117,0,0,1-14.1307-8.9337c-2.4554-5.7118-2.0378-11.3743.5423-16.9424A43.8918,43.8918,0,0,1,18.4128,260.58c.8188-.8935.3-1.2652-.22-1.8513-.7108-.8017-1.071-.0881-1.4489.3216A48.8,48.8,0,0,0,9.28,269.385C6.099,275.4339,5.2382,281.7673,7.49,288.2943c4.1569,12.0465,18.0886,15.9558,27.3358,6.5917,5.4121-5.4805,6.8587-14.8665,3.59-22.22a46.4736,46.4736,0,0,0-8.134-12.0808c-5.0244-5.603-10.2033-11.0673-15.2993-16.6064-4.3275-4.7038-8.3922-9.6169-11.1855-15.4205C.6064,221.928-.7883,215.0042.8008,207.6693c1.4159-6.5352,4.6293-11.96,10.2317-15.7009a21.7553,21.7553,0,0,1,26.5872,1.97c8.2963,7.3708,11.3269,18.6535,6.8641,29.9537C41.7751,230.75,37.3546,236.4816,32.4817,241.8992Z" fill="currentColor"/>
    <path d="M90.8629,455.21a43.0856,43.0856,0,0,0,15.8825-8.6229c6.7364-5.7622,13.2064-11.836,19.7876-17.78,4.1326-3.7323,8.2349-7.4914,13.265-10.0529,7.0911-3.611,15.0406-2.76,20.5911,2.3524a13.5547,13.5547,0,0,1,4.6692,9.3483,14.1171,14.1171,0,0,1-8.9337,14.1308c-5.7118,2.4553-11.3743,2.0377-16.9424-.5423a43.8892,43.8892,0,0,1-11.0336-7.8362c-.8936-.8187-1.2653-.3-1.8514.2195-.8017.7108-.088,1.0711.3216,1.449a48.8057,48.8057,0,0,0,10.3343,7.4648c6.0489,3.1806,12.3823,4.0414,18.9094,1.7892,12.0464-4.1569,15.9557-18.0887,6.5917-27.3358-5.4806-5.4122-14.8666-6.8588-22.22-3.59a46.475,46.475,0,0,0-12.0809,8.134c-5.603,5.0244-11.0673,10.2033-16.6064,15.2993-4.7038,4.3275-9.6168,8.3923-15.4205,11.1855-6.63,3.1911-13.5542,4.5859-20.8891,2.9967-6.5352-1.4159-11.96-4.6293-15.7008-10.2317a21.7552,21.7552,0,0,1,1.97-26.5872c7.3709-8.2963,18.6535-11.3269,29.9537-6.8641,6.8586,2.7087,12.59,7.1293,18.0075,12.0022,1.4637,1.3164,1.4988,1.3574,2.9865-.4549-.3762-.28-.786-.5663-1.1764-.8771-3.2114-2.5569-6.2861-5.3116-9.6591-7.633-5.0585-3.4814-10.528-6.2576-16.7633-6.8508-11.8-1.1226-21.3424,2.8827-27.9462,12.9657a23.3605,23.3605,0,0,0,1.17,26.3868C65.6916,455.428,78.8336,458.7664,90.8629,455.21Z" fill="currentColor"/>
    <path d="M11.5909,151.7324l1.4892-1.5567a49.085,49.085,0,0,0-9.9453-7.43A33.41,33.41,0,0,0,0,141.255v2.2582a37.9349,37.9349,0,0,1,6.363,3.9121C8.1467,148.7343,9.7881,150.2369,11.5909,151.7324Z" fill="currentColor"/>
    <path d="M65.1246,169.5861c-5.7118,2.4553-11.3743,2.0377-16.9424-.5423a43.8892,43.8892,0,0,1-11.0336-7.8362c-.8936-.8187-1.2653-.3-1.8514.2195-.8017.7108-.088,1.0711.3216,1.449a48.8057,48.8057,0,0,0,10.3343,7.4648c6.0489,3.1806,12.3823,4.0414,18.9094,1.7892,12.0464-4.1569,15.9557-18.0887,6.5917-27.3358-5.4806-5.4122-14.8666-6.8588-22.22-3.59a46.475,46.475,0,0,0-12.0809,8.134c-5.603,5.0244-11.0673,10.2033-16.6064,15.2993-4.7038,4.3275-9.6168,8.3923-15.42,11.1855A40.8976,40.8976,0,0,1,0,177.8906v2.275a43.08,43.08,0,0,0,15.7454-8.5784c6.7364-5.7622,13.2064-11.836,19.7876-17.78,4.1326-3.7323,8.2349-7.4914,13.265-10.0529,7.0911-3.611,15.0406-2.76,20.5911,2.3524a13.5547,13.5547,0,0,1,4.6692,9.3483A14.1171,14.1171,0,0,1,65.1246,169.5861Z" fill="currentColor"/>
    <path d="M9.5909,334.7324l1.4892-1.5567a49.085,49.085,0,0,0-9.9453-7.43c-.3785-.204-.7566-.39-1.1348-.5769v2.3758a45.8055,45.8055,0,0,1,4.363,2.881C6.1467,331.7343,7.7881,333.2369,9.5909,334.7324Z" fill="currentColor"/>
    <path d="M21.4538,146.6839c-.3762-.28-.786-.5663-1.1764-.8771-3.2114-2.5569-6.2861-5.3116-9.6591-7.633A42.66,42.66,0,0,0,0,132.6566v2.3173c.1533.0578.3065.1021.46.1627,6.8586,2.7087,12.59,7.1293,18.0075,12.0022C19.931,148.4552,19.9661,148.4962,21.4538,146.6839Z" fill="currentColor"/>
    <path d="M375.8629,182.21a43.0856,43.0856,0,0,0,15.8825-8.6229c6.7364-5.7622,13.2064-11.836,19.7876-17.78,4.1326-3.7323,8.2349-7.4914,13.265-10.0529,7.0911-3.611,15.0406-2.76,20.5911,2.3524a13.5547,13.5547,0,0,1,4.6692,9.3483,14.1171,14.1171,0,0,1-8.9337,14.1308c-5.7118,2.4553-11.3743,2.0377-16.9424-.5423a43.8892,43.8892,0,0,1-11.0336-7.8362c-.8936-.8187-1.2653-.3-1.8514.2195-.8017.7108-.088,1.0711.3216,1.449a48.8057,48.8057,0,0,0,10.3343,7.4648c6.0489,3.1806,12.3823,4.0414,18.9094,1.7892,12.0464-4.1569,15.9557-18.0887,6.5917-27.3358-5.4806-5.4122-14.8666-6.8588-22.22-3.59a46.475,46.475,0,0,0-12.0809,8.134c-5.603,5.0244-11.0673,10.2033-16.6064,15.2993-4.7038,4.3275-9.6168,8.3923-15.4205,11.1855-6.63,3.1911-13.5542,4.5859-20.8891,2.9967-6.5352-1.4159-11.96-4.6293-15.7008-10.2317a21.7552,21.7552,0,0,1,1.9695-26.5872c7.3709-8.2963,18.6535-11.3269,29.9537-6.8641,6.8586,2.7087,12.59,7.1293,18.0075,12.0022,1.4637,1.3164,1.4988,1.3574,2.9865-.4549-.3762-.28-.786-.5663-1.1764-.8771-3.2114-2.5569-6.2861-5.3116-9.6591-7.633-5.0585-3.4814-10.528-6.2576-16.7633-6.8508-11.8-1.1226-21.3424,2.8827-27.9462,12.9657a23.3605,23.3605,0,0,0,1.17,26.3868C350.6916,182.428,363.8336,185.7664,375.8629,182.21Z" fill="currentColor"/>
    <path d="M356.848,87.7377a23.49,23.49,0,0,0,10.7569-12.052c3.2249-8.4552,1.6862-16.3175-3.8807-23.2563-8.6339-10.7617-22.9179-13.9848-35.56-8.3487a63.4317,63.4317,0,0,0-15.4281,10.16c-5.733,4.9307-11.271,10.0881-16.8922,15.1488-3.7394,3.3664-7.4587,6.7581-11.9328,9.1688-5.2721,2.8405-10.7412,3.7325-16.5238,1.7245-9.4226-3.2721-12.9864-14.22-7.0035-22.0235,4.274-5.5746,10.21-7.1829,16.9524-6.1729,4.4537.6671,8.1855,2.9825,11.7311,5.5844,1.7835,1.3089,3.425,2.8116,5.2277,4.3071l1.4894-1.5568a49.0958,49.0958,0,0,0-9.9454-7.43c-8.2229-4.4314-16.3681-4.8428-24.2587.8279A15.8167,15.8167,0,0,0,256.8341,74.33c3.3549,5.8563,8.7915,8.6062,15.3623,9.1789a22.5649,22.5649,0,0,0,15.6493-4.7433c4.7327-3.5157,9.1677-7.4549,13.5569-11.4044,5.9358-5.3412,11.6811-10.8937,18.1406-15.6262a49.2732,49.2732,0,0,1,12.2377-6.7789,26.5389,26.5389,0,0,1,31.767,11.4646c4.4633,7.8786,4.3057,15.7641-1.0085,23.2667a23.6745,23.6745,0,0,1-12.5379,8.73c-7.45,2.4039-14.631,1.297-21.6226-1.7714A56.7088,56.7088,0,0,1,312.8,75.9244c-.298-.2755-.6-.5471-.8941-.8156l-1.4442,1.3961a1.292,1.292,0,0,0,.1266.2646c.1779.2008.3584.4007.5512.5871a55.0869,55.0869,0,0,0,17.1623,11.6042C337.9893,92.9825,347.5624,93.0592,356.848,87.7377Z" fill="currentColor"/>
    <path d="M297.1806,218.3329c8.4551,3.2248,16.3174,1.6861,23.2562-3.8807,10.7617-8.6339,13.9848-22.918,8.3487-35.56a63.43,63.43,0,0,0-10.16-15.428c-4.9307-5.733-10.0881-11.2711-15.1487-16.8923-3.3665-3.7393-6.7582-7.4586-9.1688-11.9328-2.8406-5.272-3.7326-10.7411-1.7246-16.5237,3.2721-9.4226,14.22-12.9865,22.0235-7.0035,5.5746,4.274,7.1829,10.21,6.1729,16.9523-.6671,4.4538-2.9824,8.1856-5.5844,11.7311-1.3089,1.7837-2.8116,3.4251-4.307,5.2279l1.5567,1.4892a49.0887,49.0887,0,0,0,7.43-9.9453c4.4314-8.2229,4.8428-16.3681-.8279-24.2588a15.8167,15.8167,0,0,0-20.5113-4.7458c-5.8563,3.355-8.6061,8.7915-9.1789,15.3623A22.5659,22.5659,0,0,0,294.1,138.5737c3.5157,4.7326,7.4549,9.1677,11.4044,13.5569,5.3412,5.9358,10.8937,11.681,15.6262,18.1406a49.2749,49.2749,0,0,1,6.779,12.2377,26.539,26.539,0,0,1-11.4647,31.767c-7.8786,4.4632-15.764,4.3056-23.2667-1.0084a23.6754,23.6754,0,0,1-8.73-12.538c-2.404-7.45-1.2971-14.631,1.7713-21.6226a56.7073,56.7073,0,0,1,10.7224-15.5794c.2755-.2979.5471-.6.8156-.8941l-1.3961-1.4442a1.2956,1.2956,0,0,0-.2646.1265c-.2008.1781-.4007.3585-.5871.5513a55.0866,55.0866,0,0,0-11.6041,17.1623c-4.0217,9.6879-4.0985,19.2612,1.223,28.5467A23.49,23.49,0,0,0,297.1806,218.3329Z" fill="currentColor"/>
    <path d="M391.8845,127.5787c8.4551,3.2249,16.3174,1.6862,23.2562-3.8807,10.7617-8.6339,13.9848-22.9179,8.3487-35.56a63.4311,63.4311,0,0,0-10.16-15.428c-4.9307-5.7331-10.0881-11.2711-15.1487-16.8923-3.3665-3.7394-6.7582-7.4587-9.1689-11.9329-2.8405-5.272-3.7325-10.7411-1.7245-16.5237,3.2721-9.4226,14.22-12.9864,22.0235-7.0035,5.5746,4.274,7.1829,10.21,6.173,16.9523-.6672,4.4538-2.9826,8.1856-5.5845,11.7311-1.3089,1.7836-2.8115,3.4251-4.3071,5.2279l1.5568,1.4892a49.0887,49.0887,0,0,0,7.43-9.9453c4.4314-8.223,4.8428-16.3681-.8279-24.2588A15.8166,15.8166,0,0,0,393.24,16.8079c-5.8564,3.3549-8.6062,8.7915-9.179,15.3623A22.5654,22.5654,0,0,0,388.8042,47.82c3.5157,4.7327,7.4549,9.1677,11.4044,13.5569,5.3412,5.9359,10.8938,11.681,15.6262,18.1406a49.2749,49.2749,0,0,1,6.779,12.2377,26.539,26.539,0,0,1-11.4647,31.767c-7.8786,4.4633-15.764,4.3056-23.2667-1.0085a23.6744,23.6744,0,0,1-8.73-12.5379c-2.404-7.45-1.2971-14.631,1.7713-21.6226a56.7094,56.7094,0,0,1,10.7224-15.5794c.2755-.298.5471-.6.8156-.8941l-1.3961-1.4442a1.2983,1.2983,0,0,0-.2646.1265c-.2008.1781-.4006.3585-.5871.5513a55.0884,55.0884,0,0,0-11.6041,17.1623c-4.0218,9.6879-4.0985,19.2612,1.223,28.5467A23.4905,23.4905,0,0,0,391.8845,127.5787Z" fill="currentColor"/>
    <path d="M119.4351,442.1108a55.0886,55.0886,0,0,0,17.1623,11.6042c9.6879,4.0216,19.2612,4.0984,28.5467-1.2231A23.4893,23.4893,0,0,0,175.901,440.44c3.2249-8.4551,1.6862-16.3174-3.8807-23.2562-8.6339-10.7617-22.9179-13.9848-35.56-8.3487a63.4292,63.4292,0,0,0-15.428,10.16c-5.733,4.9307-11.2711,10.0881-16.8924,15.1487-3.7393,3.3665-7.4586,6.7583-11.9328,9.1689-5.272,2.8405-10.741,3.7325-16.5237,1.7245-9.4226-3.272-12.9864-14.22-7.0035-22.0235,4.2741-5.5746,10.21-7.1829,16.9524-6.1729,4.4537.6671,8.1855,2.9825,11.731,5.5844,1.7837,1.309,3.4251,2.8116,5.2279,4.3071l1.4892-1.5567a49.085,49.085,0,0,0-9.9453-7.43c-8.2229-4.4315-16.3681-4.8429-24.2588.8278A15.8168,15.8168,0,0,0,65.13,439.0845c3.355,5.8563,8.7916,8.6062,15.3623,9.1789A22.5654,22.5654,0,0,0,96.1418,443.52c4.7327-3.5157,9.1677-7.4549,13.5569-11.4044,5.9359-5.3412,11.6811-10.8937,18.1406-15.6262a49.2781,49.2781,0,0,1,12.2377-6.779,26.5389,26.5389,0,0,1,31.767,11.4647c4.4633,7.8786,4.3057,15.7641-1.0084,23.2667a23.6752,23.6752,0,0,1-12.538,8.7305c-7.45,2.4039-14.631,1.297-21.6226-1.7714a56.7073,56.7073,0,0,1-15.5794-10.7224c-.2979-.2755-.6-.5471-.8941-.8156l-1.4442,1.3961a1.284,1.284,0,0,0,.1266.2646C119.0619,441.7245,119.2423,441.9244,119.4351,442.1108Z" fill="currentColor"/>
    <path d="M410.1855,61.1451c-1.3164,1.4635-1.3574,1.4987.4549,2.9864.28-.3763.5663-.786.8772-1.1764,2.5569-3.2114,5.3116-6.2861,7.633-9.6591,3.4814-5.0585,6.2575-10.5279,6.8507-16.7633,1.1227-11.8-2.8827-21.3425-12.9657-27.9462a23.3605,23.3605,0,0,0-26.3868,1.17c-9.7525,7.6127-13.0908,20.7548-9.5346,32.784a43.0871,43.0871,0,0,0,8.6229,15.8825c5.7623,6.7364,11.8361,13.2064,17.78,19.7875,3.7323,4.1327,7.4914,8.2351,10.053,13.2651,3.611,7.0911,2.76,15.04-2.3525,20.5911a13.5543,13.5543,0,0,1-9.3483,4.6692,14.1172,14.1172,0,0,1-14.1307-8.9338c-2.4554-5.7117-2.0377-11.3742.5423-16.9423a43.8908,43.8908,0,0,1,7.8362-11.0337c.8186-.8935.3-1.2652-.22-1.8513-.7109-.8017-1.071-.0881-1.449.3215a48.8063,48.8063,0,0,0-7.4648,10.3344c-3.18,6.0489-4.0414,12.3823-1.7891,18.9094,4.1568,12.0465,18.0886,15.9557,27.3358,6.5916,5.4121-5.48,6.8587-14.8665,3.59-22.22a46.4783,46.4783,0,0,0-8.1339-12.0808c-5.0246-5.603-10.2034-11.0673-15.2994-16.6064-4.3275-4.7038-8.3922-9.6169-11.1855-15.42-3.1911-6.63-4.5859-13.5543-2.9967-20.8893,1.4159-6.5351,4.6293-11.96,10.2318-15.7008a21.7552,21.7552,0,0,1,26.5871,1.97c8.2963,7.3708,11.3269,18.6535,6.8641,29.9537C419.479,49.9961,415.0585,55.7274,410.1855,61.1451Z" fill="currentColor"/>
    <path d="M225.4368,305.4522c10.7617-8.6339,13.9848-22.918,8.3487-35.56a63.43,63.43,0,0,0-10.16-15.428c-4.9307-5.733-10.0881-11.2711-15.1487-16.8923-3.3665-3.7393-6.7582-7.4586-9.1688-11.9328-2.8406-5.272-3.7326-10.7411-1.7246-16.5237,3.2721-9.4226,14.22-12.9865,22.0235-7.0035,5.5746,4.274,7.1829,10.21,6.1729,16.9523-.6671,4.4538-2.9824,8.1856-5.5844,11.7311-1.3089,1.7837-2.8116,3.4251-4.307,5.2279l1.5567,1.4892a49.0887,49.0887,0,0,0,7.43-9.9453c4.4314-8.2229,4.8428-16.3681-.8279-24.2588a15.8167,15.8167,0,0,0-20.5113-4.7458c-5.8563,3.355-8.6061,8.7915-9.1789,15.3623A22.5659,22.5659,0,0,0,199.1,229.5737c3.5157,4.7326,7.4549,9.1677,11.4044,13.5569,5.3412,5.9358,10.8937,11.681,15.6262,18.1406a49.2749,49.2749,0,0,1,6.779,12.2377,26.539,26.539,0,0,1-11.4647,31.767c-7.8786,4.4632-15.764,4.3056-23.2667-1.0084a23.6754,23.6754,0,0,1-8.73-12.538c-2.404-7.45-1.2971-14.631,1.7713-21.6226a56.7073,56.7073,0,0,1,10.7224-15.5794c.2755-.2979.5471-.6.8156-.8941l-1.3961-1.4442a1.2956,1.2956,0,0,0-.2646.1265c-.2008.1781-.4007.3585-.5871.5513a55.0866,55.0866,0,0,0-11.6041,17.1623c-4.0217,9.6879-4.0985,19.2612,1.223,28.5467a23.49,23.49,0,0,0,12.0521,10.7569C210.6357,312.5577,218.498,311.019,225.4368,305.4522Z" fill="currentColor"/>
    <path d="M262.1441,178.4919A23.4893,23.4893,0,0,0,272.901,166.44c3.2249-8.4551,1.6862-16.3174-3.8807-23.2562-8.6339-10.7617-22.9179-13.9848-35.56-8.3487a63.4292,63.4292,0,0,0-15.428,10.16c-5.733,4.9307-11.2711,10.0881-16.8924,15.1487-3.7393,3.3665-7.4586,6.7583-11.9328,9.1689-5.272,2.84-10.741,3.7325-16.5237,1.7245-9.4226-3.272-12.9864-14.22-7.0035-22.0235,4.2741-5.5746,10.21-7.1829,16.9524-6.1729,4.4537.6671,8.1855,2.9825,11.731,5.5844,1.7837,1.309,3.4251,2.8116,5.2279,4.3071l1.4892-1.5567a49.085,49.085,0,0,0-9.9453-7.43c-8.2229-4.4315-16.3681-4.8429-24.2588.8278a15.8168,15.8168,0,0,0-4.7458,20.5113c3.355,5.8563,8.7916,8.6062,15.3623,9.1789a22.5654,22.5654,0,0,0,15.6493-4.7433c4.7327-3.5157,9.1677-7.4549,13.5569-11.4044,5.9359-5.3412,11.6811-10.8937,18.1406-15.6262a49.2781,49.2781,0,0,1,12.2377-6.779,26.5389,26.5389,0,0,1,31.767,11.4647c4.4633,7.8786,4.3057,15.7641-1.0084,23.2667a23.6752,23.6752,0,0,1-12.538,8.7305c-7.45,2.4039-14.631,1.297-21.6226-1.7714a56.7073,56.7073,0,0,1-15.5794-10.7224c-.2979-.2755-.6-.5471-.8941-.8156l-1.4442,1.3961a1.284,1.284,0,0,0,.1266.2646c.178.2008.3584.4007.5512.5871a55.0886,55.0886,0,0,0,17.1623,11.6042C243.2853,183.7366,252.8586,183.8134,262.1441,178.4919Z" fill="currentColor"/>
    <path d="M298.4493,81.833c6.7364-5.7623,13.2063-11.8361,19.7875-17.78C322.37,60.321,326.4719,56.5619,331.502,54c7.091-3.6111,15.0405-2.76,20.591,2.3524a13.554,13.554,0,0,1,4.6691,9.3484,14.1167,14.1167,0,0,1-8.9337,14.1306c-5.7117,2.4554-11.3742,2.0378-16.9423-.5422a43.8933,43.8933,0,0,1-11.0337-7.8362c-.8935-.8187-1.2652-.3-1.8513.2195-.8017.7109-.0881,1.0711.3215,1.449a48.8089,48.8089,0,0,0,10.3344,7.4648c6.0489,3.1806,12.3824,4.0414,18.9093,1.7892,12.0466-4.1569,15.9559-18.0887,6.5917-27.3359-5.4805-5.4121-14.8665-6.8587-22.22-3.59a46.4772,46.4772,0,0,0-12.081,8.134c-5.6029,5.0245-11.0672,10.2033-16.6063,15.2993-4.7038,4.3275-9.6169,8.3923-15.4205,11.1855-6.63,3.1911-13.5542,4.5859-20.8891,2.9967-6.5352-1.4159-11.9605-4.6293-15.7008-10.2317a21.755,21.755,0,0,1,1.97-26.5871c7.3708-8.2964,18.6535-11.327,29.9536-6.8642,6.8587,2.7087,12.59,7.1293,18.0077,12.0022,1.4636,1.3164,1.4987,1.3574,2.9864-.4549-.3763-.28-.786-.5662-1.1764-.8771-3.2113-2.5569-6.2861-5.3116-9.6592-7.633-5.0584-3.4814-10.5278-6.2576-16.7632-6.8508-11.8-1.1226-21.3424,2.8827-27.9462,12.9657a23.3607,23.3607,0,0,0,1.17,26.3868c7.6127,9.7525,20.7547,13.0908,32.784,9.5346A43.0864,43.0864,0,0,0,298.4493,81.833Z" fill="currentColor"/>
    <path d="M315.4817,151.8992c-1.3165,1.4637-1.3574,1.4988.4548,2.9865.28-.3762.5663-.786.8772-1.1764,2.5568-3.2114,5.3115-6.2861,7.633-9.6592,3.4813-5.0584,6.2575-10.5279,6.8507-16.7632,1.1227-11.8-2.8827-21.3424-12.9657-27.9462a23.36,23.36,0,0,0-26.3868,1.17c-9.7525,7.6127-13.0908,20.7547-9.5346,32.784a43.0871,43.0871,0,0,0,8.6229,15.8825c5.7623,6.7363,11.8361,13.2064,17.78,19.7875,3.7323,4.1327,7.4915,8.235,10.0529,13.2651,3.6111,7.0911,2.76,15.0405-2.3523,20.5911a13.5551,13.5551,0,0,1-9.3484,4.6692,14.117,14.117,0,0,1-14.1307-8.9337c-2.4554-5.7118-2.0378-11.3743.5423-16.9424a43.8918,43.8918,0,0,1,7.8361-11.0337c.8188-.8935.3-1.2652-.2195-1.8513-.7108-.8017-1.071-.0881-1.4489.3216A48.8,48.8,0,0,0,292.28,179.385c-3.18,6.0489-4.0413,12.3823-1.7891,18.9093,4.1569,12.0465,18.0886,15.9558,27.3358,6.5917,5.4121-5.4805,6.8587-14.8665,3.59-22.22a46.4736,46.4736,0,0,0-8.134-12.0808c-5.0244-5.603-10.2033-11.0673-15.2993-16.6064-4.3275-4.7038-8.3922-9.6169-11.1855-15.4205-3.1911-6.63-4.5858-13.5542-2.9967-20.8891,1.4159-6.5352,4.6293-11.9605,10.2317-15.7009a21.7553,21.7553,0,0,1,26.5872,1.97c8.2963,7.3708,11.3269,18.6535,6.8641,29.9537C324.7751,140.75,320.3546,146.4816,315.4817,151.8992Z" fill="currentColor"/>
    <path d="M11.9418,436.5275c.2755-.2979.5471-.6.8156-.8941l-1.3961-1.4442a1.2956,1.2956,0,0,0-.2646.1265c-.2008.1781-.4007.3585-.5871.5513A56.5914,56.5914,0,0,0,0,449.5914v5.6242q.5436-1.56,1.2194-3.1087A56.7073,56.7073,0,0,1,11.9418,436.5275Z" fill="currentColor"/>
    <path d="M30.4817,424.8992c-1.3165,1.4637-1.3574,1.4988.4548,2.9865.28-.3762.5663-.786.8772-1.1764,2.5568-3.2114,5.3115-6.2861,7.633-9.6592,3.4813-5.0584,6.2575-10.5279,6.8507-16.7632,1.1227-11.8-2.8827-21.3424-12.9657-27.9462a23.36,23.36,0,0,0-26.3868,1.17A27.5459,27.5459,0,0,0,0,381.5569v5.0318a23.25,23.25,0,0,1,9.0325-11.62,21.7553,21.7553,0,0,1,26.5872,1.97c8.2963,7.3708,11.3269,18.6535,6.8641,29.9537C39.7751,413.75,35.3546,419.4816,30.4817,424.8992Z" fill="currentColor"/>
    <path d="M408.4817,243.8992c-1.3165,1.4637-1.3574,1.4988.4548,2.9865.28-.3762.5663-.786.8772-1.1764,2.5568-3.2114,5.3115-6.2861,7.633-9.6592,3.4813-5.0584,6.2575-10.5279,6.8507-16.7632,1.1227-11.8-2.8827-21.3424-12.9657-27.9462a23.36,23.36,0,0,0-26.3868,1.17c-9.7525,7.6127-13.0908,20.7547-9.5346,32.784a43.0871,43.0871,0,0,0,8.6229,15.8825c5.7623,6.7363,11.8361,13.2064,17.78,19.7875,3.7323,4.1327,7.4915,8.235,10.0529,13.2651,3.6111,7.0911,2.76,15.0405-2.3523,20.5911a13.5551,13.5551,0,0,1-9.3484,4.6692,14.117,14.117,0,0,1-14.1307-8.9337c-2.4554-5.7118-2.0378-11.3743.5423-16.9424a43.8918,43.8918,0,0,1,7.8361-11.0337c.8188-.8935.3-1.2652-.2195-1.8513-.7108-.8017-1.071-.0881-1.4489.3216A48.8,48.8,0,0,0,385.28,271.385c-3.18,6.0489-4.0413,12.3823-1.7891,18.9093,4.1569,12.0465,18.0886,15.9558,27.3358,6.5917,5.4121-5.4805,6.8587-14.8665,3.59-22.22a46.4736,46.4736,0,0,0-8.134-12.0808c-5.0244-5.603-10.2033-11.0673-15.2993-16.6064-4.3275-4.7038-8.3922-9.6169-11.1855-15.4205-3.1911-6.63-4.5858-13.5542-2.9967-20.8891,1.4159-6.5352,4.6293-11.96,10.2317-15.7009a21.7553,21.7553,0,0,1,26.5872,1.97c8.2963,7.3708,11.3269,18.6535,6.8641,29.9537C417.7751,232.75,413.3546,238.4816,408.4817,243.8992Z" fill="currentColor"/>
    <path d="M8.5767,454.6141A43.8918,43.8918,0,0,1,16.4128,443.58c.8188-.8935.3-1.2652-.22-1.8513-.7108-.8017-1.071-.0881-1.4489.3216A48.8,48.8,0,0,0,7.28,452.385,28.3764,28.3764,0,0,0,5.3338,457H7.613C7.8907,456.2029,8.2091,455.4074,8.5767,454.6141Z" fill="currentColor"/>
    <path d="M28.2823,443.5853c-5.0244-5.603-10.2033-11.0673-15.2993-16.6064-4.3275-4.7038-8.3922-9.6169-11.1855-15.4205A41.6448,41.6448,0,0,1,0,407.2214v5.7445a43.1221,43.1221,0,0,0,6.0332,9.2114c5.7623,6.7363,11.8361,13.2064,17.78,19.7875,3.7323,4.1327,7.4915,8.235,10.0529,13.2651.2976.5843.5536,1.1759.7906,1.77h2.2909c-.1612-.4507-.3365-.8964-.531-1.3339A46.4736,46.4736,0,0,0,28.2823,443.5853Z" fill="currentColor"/>
    <path d="M222.1855,60.1451c-1.3164,1.4635-1.3574,1.4987.4549,2.9864.28-.3763.5663-.786.8772-1.1764,2.5569-3.2114,5.3116-6.2861,7.633-9.6591,3.4814-5.0585,6.2575-10.5279,6.8507-16.7633,1.1227-11.8-2.8827-21.3425-12.9657-27.9462a23.3607,23.3607,0,0,0-26.3868,1.17c-9.7525,7.6127-13.0908,20.7548-9.5346,32.784a43.0871,43.0871,0,0,0,8.6229,15.8825c5.7623,6.7364,11.8361,13.2064,17.78,19.7875,3.7323,4.1327,7.4914,8.2351,10.053,13.2651,3.611,7.0911,2.76,15.04-2.3525,20.5911a13.5543,13.5543,0,0,1-9.3483,4.6692,14.1172,14.1172,0,0,1-14.1307-8.9338c-2.4554-5.7117-2.0377-11.3742.5423-16.9423a43.8908,43.8908,0,0,1,7.8362-11.0337c.8186-.8935.3-1.2652-.22-1.8513-.7109-.8017-1.071-.0881-1.449.3215a48.8063,48.8063,0,0,0-7.4648,10.3344c-3.18,6.0489-4.0414,12.3823-1.7891,18.9094,4.1568,12.0465,18.0886,15.9557,27.3358,6.5916,5.4121-5.48,6.8587-14.8665,3.59-22.22a46.4783,46.4783,0,0,0-8.1339-12.0808c-5.0246-5.603-10.2034-11.0673-15.2994-16.6064-4.3275-4.7038-8.3922-9.6169-11.1855-15.42-3.1911-6.63-4.5859-13.5543-2.9967-20.8893,1.4159-6.5351,4.6293-11.96,10.2318-15.7008a21.7552,21.7552,0,0,1,26.5871,1.97c8.2963,7.3708,11.3269,18.6535,6.8641,29.9537C231.479,48.9961,227.0585,54.7274,222.1855,60.1451Z" fill="currentColor"/>
    <path d="M409.6252,438.4638c-4.9307-5.733-10.0881-11.2711-15.1487-16.8923-3.3665-3.7393-6.7582-7.4586-9.1688-11.9328-2.8406-5.272-3.7326-10.7411-1.7246-16.5237,3.2721-9.4226,14.22-12.9865,22.0235-7.0035,5.5746,4.274,7.1829,10.21,6.1729,16.9523-.6671,4.4538-2.9824,8.1856-5.5844,11.7311-1.3089,1.7837-2.8116,3.4251-4.307,5.2279l1.5567,1.4892a49.0887,49.0887,0,0,0,7.43-9.9453c4.4314-8.2229,4.8428-16.3681-.8279-24.2588a15.8167,15.8167,0,0,0-20.5113-4.7458c-5.8563,3.355-8.6061,8.7915-9.1789,15.3623A22.5659,22.5659,0,0,0,385.1,413.5737c3.5157,4.7326,7.4549,9.1677,11.4044,13.5569,5.3412,5.9358,10.8937,11.681,15.6262,18.1406A49.87,49.87,0,0,1,418.7114,457h2.25a32.1273,32.1273,0,0,0-1.1762-3.1082A63.43,63.43,0,0,0,409.6252,438.4638Z" fill="currentColor"/>
    <path d="M387.0967,436.3157c-.2008.1781-.4007.3585-.5871.5513a55.0866,55.0866,0,0,0-11.6041,17.1623c-.4117.9916-.7709,1.9817-1.0984,2.9707h2.2668q.5153-1.452,1.1455-2.8931a56.7073,56.7073,0,0,1,10.7224-15.5794c.2755-.2979.5471-.6.8156-.8941l-1.3961-1.4442A1.2956,1.2956,0,0,0,387.0967,436.3157Z" fill="currentColor"/>
    <path d="M390.7444,444.0507A48.8,48.8,0,0,0,383.28,454.385c-.4552.8657-.857,1.7379-1.2148,2.615h2.3428c.0573-.1286.11-.2574.1692-.3859a43.8918,43.8918,0,0,1,7.8361-11.0337c.8188-.8935.3-1.2652-.2195-1.8513C391.4825,442.9274,391.1223,443.641,390.7444,444.0507Z" fill="currentColor"/>
    <path d="M186.46,319.1366c6.8586,2.7087,12.59,7.1293,18.0075,12.0022,1.4637,1.3164,1.4988,1.3574,2.9865-.4549-.3762-.28-.786-.5663-1.1764-.8771-3.2114-2.5569-6.2861-5.3116-9.6591-7.633-5.0585-3.4814-10.528-6.2576-16.7633-6.8508-11.8-1.1226-21.3424,2.8827-27.9462,12.9657a23.3605,23.3605,0,0,0,1.17,26.3868c7.6127,9.7525,20.7547,13.0909,32.784,9.5346a43.0856,43.0856,0,0,0,15.8825-8.6229c6.7364-5.7622,13.2064-11.836,19.7876-17.78,4.1326-3.7323,8.2349-7.4914,13.265-10.0529,7.0911-3.611,15.0406-2.76,20.5911,2.3524a13.5547,13.5547,0,0,1,4.6692,9.3483,14.1171,14.1171,0,0,1-8.9337,14.1308c-5.7118,2.4553-11.3743,2.0377-16.9424-.5423a43.8892,43.8892,0,0,1-11.0336-7.8362c-.8936-.8187-1.2653-.3-1.8514.2195-.8017.7108-.088,1.0711.3216,1.449a48.8057,48.8057,0,0,0,10.3343,7.4648c6.0489,3.1806,12.3823,4.0414,18.9094,1.7892,12.0464-4.1569,15.9557-18.0887,6.5917-27.3358-5.4806-5.4122-14.8666-6.8588-22.22-3.59a46.475,46.475,0,0,0-12.0809,8.134c-5.603,5.0244-11.0673,10.2033-16.6064,15.2993-4.7038,4.3275-9.6168,8.3923-15.4205,11.1855-6.63,3.1911-13.5542,4.5859-20.8891,2.9967-6.5352-1.4159-11.96-4.6293-15.7008-10.2317a21.7552,21.7552,0,0,1,1.97-26.5872C163.877,317.7044,175.16,314.6738,186.46,319.1366Z" fill="currentColor"/>
    <path d="M30.032,143.9952c-5.733,4.9307-11.2711,10.0881-16.8924,15.1487C9.4,162.51,5.681,165.9022,1.2068,168.3128c-.401.2161-.8035.4168-1.2068.61v2.5879a26.0138,26.0138,0,0,0,5.1418-2.99c4.7327-3.5157,9.1677-7.4549,13.5569-11.4044C24.6346,151.7745,30.38,146.222,36.8393,141.49a49.2781,49.2781,0,0,1,12.2377-6.779,26.5389,26.5389,0,0,1,31.767,11.4647c4.4633,7.8786,4.3057,15.7641-1.0084,23.2667a23.6752,23.6752,0,0,1-12.538,8.7305c-7.45,2.4039-14.631,1.297-21.6226-1.7714a56.7073,56.7073,0,0,1-15.5794-10.7224c-.2979-.2755-.6-.5471-.8941-.8156l-1.4442,1.3961a1.284,1.284,0,0,0,.1266.2646c.178.2008.3584.4007.5512.5871A55.0886,55.0886,0,0,0,45.5974,178.715c9.6879,4.0216,19.2612,4.0984,28.5467-1.2231A23.4893,23.4893,0,0,0,84.901,165.44c3.2249-8.4551,1.6862-16.3174-3.8807-23.2562-8.6339-10.7617-22.9179-13.9848-35.56-8.3487A63.4292,63.4292,0,0,0,30.032,143.9952Z" fill="currentColor"/>
    <path d="M409.3317,374.3407a23.36,23.36,0,0,0-26.3868,1.17c-9.7525,7.6127-13.0908,20.7547-9.5346,32.784a43.0871,43.0871,0,0,0,8.6229,15.8825c5.7623,6.7363,11.8361,13.2064,17.78,19.7875,3.6742,4.0683,7.3686,8.1117,9.9265,13.0352h2.36a47.2709,47.2709,0,0,0-7.8174-11.4147c-5.0244-5.603-10.2033-11.0673-15.2993-16.6064-4.3275-4.7038-8.3922-9.6169-11.1855-15.4205-3.1911-6.63-4.5858-13.5542-2.9967-20.8891,1.4159-6.5352,4.6293-11.9605,10.2317-15.7009a21.7553,21.7553,0,0,1,26.5872,1.97c8.2963,7.3708,11.3269,18.6535,6.8641,29.9537-2.7087,6.8586-7.1292,12.59-12.0021,18.0075-1.3165,1.4637-1.3574,1.4988.4548,2.9865.28-.3762.5663-.786.8772-1.1764,2.5568-3.2114,5.3115-6.2861,7.633-9.6592,3.4813-5.0584,6.2575-10.5279,6.8507-16.7632C423.42,390.4871,419.4147,380.9445,409.3317,374.3407Z" fill="currentColor"/>
    <path d="M191.8324,115.8218a23.4905,23.4905,0,0,0,12.0521,10.7569c8.4551,3.2249,16.3174,1.6862,23.2562-3.8807,10.7617-8.6339,13.9848-22.9179,8.3487-35.56a63.4311,63.4311,0,0,0-10.16-15.428c-4.9307-5.7331-10.0881-11.2711-15.1487-16.8923-3.3665-3.7394-6.7582-7.4587-9.1689-11.9329-2.8405-5.272-3.7325-10.7411-1.7245-16.5237,3.2721-9.4226,14.22-12.9864,22.0235-7.0035,5.5746,4.274,7.1829,10.21,6.173,16.9523-.6672,4.4538-2.9826,8.1856-5.5845,11.7311-1.3089,1.7836-2.8115,3.4251-4.3071,5.2279l1.5568,1.4892a49.0887,49.0887,0,0,0,7.43-9.9453c4.4314-8.223,4.8428-16.3681-.8279-24.2588A15.8166,15.8166,0,0,0,205.24,15.8079c-5.8564,3.3549-8.6062,8.7915-9.179,15.3623A22.5654,22.5654,0,0,0,200.8042,46.82c3.5157,4.7327,7.4549,9.1677,11.4044,13.5569,5.3412,5.9359,10.8938,11.681,15.6262,18.1406a49.2749,49.2749,0,0,1,6.779,12.2377,26.539,26.539,0,0,1-11.4647,31.767c-7.8786,4.4633-15.764,4.3056-23.2667-1.0085a23.6744,23.6744,0,0,1-8.73-12.5379c-2.404-7.45-1.2971-14.631,1.7713-21.6226a56.7094,56.7094,0,0,1,10.7224-15.5794c.2755-.298.5471-.6.8156-.8941l-1.3961-1.4442a1.2983,1.2983,0,0,0-.2646.1265c-.2008.1781-.4006.3585-.5871.5513a55.0884,55.0884,0,0,0-11.6041,17.1623C186.5876,96.963,186.5109,106.5363,191.8324,115.8218Z" fill="currentColor"/>
    <path d="M107.1806,400.3329c8.4551,3.2248,16.3174,1.6861,23.2562-3.8807,10.7617-8.6339,13.9848-22.918,8.3487-35.56a63.43,63.43,0,0,0-10.16-15.428c-4.9307-5.733-10.0881-11.2711-15.1487-16.8923-3.3665-3.7393-6.7582-7.4586-9.1688-11.9328-2.8406-5.272-3.7326-10.7411-1.7246-16.5237,3.2721-9.4226,14.22-12.9865,22.0235-7.0035,5.5746,4.274,7.1829,10.21,6.1729,16.9523-.6671,4.4538-2.9824,8.1856-5.5844,11.7311-1.3089,1.7837-2.8116,3.4251-4.307,5.2279l1.5567,1.4892a49.0887,49.0887,0,0,0,7.43-9.9453c4.4314-8.2229,4.8428-16.3681-.8279-24.2588a15.8167,15.8167,0,0,0-20.5113-4.7458c-5.8563,3.355-8.6061,8.7915-9.1789,15.3623A22.5659,22.5659,0,0,0,104.1,320.5737c3.5157,4.7326,7.4549,9.1677,11.4044,13.5569,5.3412,5.9358,10.8937,11.681,15.6262,18.1406a49.2749,49.2749,0,0,1,6.779,12.2377,26.539,26.539,0,0,1-11.4647,31.767c-7.8786,4.4632-15.764,4.3056-23.2667-1.0084a23.6754,23.6754,0,0,1-8.73-12.538c-2.404-7.45-1.2971-14.631,1.7713-21.6226a56.7073,56.7073,0,0,1,10.7224-15.5794c.2755-.2979.5471-.6.8156-.8941l-1.3961-1.4442a1.2956,1.2956,0,0,0-.2646.1265c-.2008.1781-.4007.3585-.5871.5513a55.0866,55.0866,0,0,0-11.6041,17.1623c-4.0217,9.6879-4.0985,19.2612,1.223,28.5467A23.49,23.49,0,0,0,107.1806,400.3329Z" fill="currentColor"/>
    <path d="M167.1441,269.4919A23.4893,23.4893,0,0,0,177.901,257.44c3.2249-8.4551,1.6862-16.3174-3.8807-23.2562-8.6339-10.7617-22.9179-13.9848-35.56-8.3487a63.4292,63.4292,0,0,0-15.428,10.16c-5.733,4.9307-11.2711,10.0881-16.8924,15.1487-3.7393,3.3665-7.4586,6.7583-11.9328,9.1689-5.272,2.8405-10.741,3.7325-16.5237,1.7245-9.4226-3.272-12.9864-14.22-7.0035-22.0235,4.2741-5.5746,10.21-7.1829,16.9524-6.1729,4.4537.6671,8.1855,2.9825,11.731,5.5844,1.7837,1.309,3.4251,2.8116,5.2279,4.3071l1.4892-1.5567a49.085,49.085,0,0,0-9.9453-7.43c-8.2229-4.4315-16.3681-4.8429-24.2588.8278A15.8168,15.8168,0,0,0,67.13,256.0845c3.355,5.8563,8.7916,8.6062,15.3623,9.1789A22.5654,22.5654,0,0,0,98.1418,260.52c4.7327-3.5157,9.1677-7.4549,13.5569-11.4044,5.9359-5.3412,11.6811-10.8937,18.1406-15.6262a49.2781,49.2781,0,0,1,12.2377-6.779,26.5389,26.5389,0,0,1,31.767,11.4647c4.4633,7.8786,4.3057,15.7641-1.0084,23.2667a23.6752,23.6752,0,0,1-12.538,8.7305c-7.45,2.4039-14.631,1.297-21.6226-1.7714a56.7073,56.7073,0,0,1-15.5794-10.7224c-.2979-.2755-.6-.5471-.8941-.8156l-1.4442,1.3961a1.284,1.284,0,0,0,.1266.2646c.178.2008.3584.4007.5512.5871a55.0886,55.0886,0,0,0,17.1623,11.6042C148.2853,274.7366,157.8586,274.8134,167.1441,269.4919Z" fill="currentColor"/>
    <path d="M105.3221,47.42c-5.0584-3.4814-10.5278-6.2576-16.7632-6.8508-11.8-1.1226-21.3424,2.8827-27.9462,12.9657a23.3607,23.3607,0,0,0,1.17,26.3868c7.6127,9.7525,20.7547,13.0908,32.784,9.5346a43.0864,43.0864,0,0,0,15.8825-8.6229c6.7364-5.7623,13.2063-11.8361,19.7875-17.78C134.37,59.321,138.4719,55.5619,143.502,53c7.091-3.6111,15.04-2.76,20.591,2.3524a13.554,13.554,0,0,1,4.6691,9.3484,14.1167,14.1167,0,0,1-8.9337,14.1306c-5.7117,2.4554-11.3742,2.0378-16.9423-.5422a43.8933,43.8933,0,0,1-11.0337-7.8362c-.8935-.8187-1.2652-.3-1.8513.2195-.8017.7109-.0881,1.0711.3215,1.449a48.8089,48.8089,0,0,0,10.3344,7.4648c6.0489,3.1806,12.3824,4.0414,18.9093,1.7892,12.0466-4.1569,15.9559-18.0887,6.5917-27.3359-5.48-5.4121-14.8665-6.8587-22.22-3.59a46.4772,46.4772,0,0,0-12.081,8.134c-5.6029,5.0245-11.0672,10.2033-16.6063,15.2993-4.7038,4.3275-9.6169,8.3923-15.4205,11.1855C93.2,88.26,86.2762,89.6546,78.9413,88.0654c-6.5352-1.4159-11.96-4.6293-15.7008-10.2317A21.755,21.755,0,0,1,65.21,51.2466C72.5808,42.95,83.8635,39.92,95.1636,44.3824c6.8587,2.7087,12.59,7.1293,18.0077,12.0022,1.4636,1.3164,1.4987,1.3574,2.9864-.4549-.3763-.28-.786-.5662-1.1764-.8771C111.77,52.4957,108.6952,49.741,105.3221,47.42Z" fill="currentColor"/>
    <path d="M140.1639,43.0807a63.4317,63.4317,0,0,0-15.4281,10.16c-5.733,4.9307-11.271,10.0881-16.8922,15.1488-3.7394,3.3664-7.4587,6.7581-11.9328,9.1688C90.6387,80.3991,85.17,81.2911,79.387,79.2831,69.9644,76.011,66.4006,65.063,72.3835,57.26c4.274-5.5746,10.21-7.1829,16.9524-6.1729,4.4537.6671,8.1855,2.9825,11.7311,5.5844,1.7835,1.3089,3.425,2.8116,5.2277,4.3071l1.4894-1.5568a49.0958,49.0958,0,0,0-9.9454-7.43C89.6158,47.56,81.4706,47.1483,73.58,52.819A15.8167,15.8167,0,0,0,68.8341,73.33c3.3549,5.8563,8.7915,8.6062,15.3623,9.1789a22.5649,22.5649,0,0,0,15.6493-4.7433c4.7327-3.5157,9.1677-7.4549,13.5569-11.4044,5.9358-5.3412,11.6811-10.8937,18.1406-15.6262a49.2732,49.2732,0,0,1,12.2377-6.7789,26.5389,26.5389,0,0,1,31.767,11.4646c4.4633,7.8786,4.3057,15.7641-1.0085,23.2667a23.6745,23.6745,0,0,1-12.5379,8.73c-7.45,2.4039-14.631,1.297-21.6226-1.7714A56.7088,56.7088,0,0,1,124.8,74.9244c-.298-.2755-.5995-.5471-.8941-.8156l-1.4442,1.3961a1.292,1.292,0,0,0,.1266.2646c.1779.2008.3584.4007.5512.5871a55.0869,55.0869,0,0,0,17.1623,11.6042c9.688,4.0217,19.2611,4.0984,28.5467-1.2231a23.49,23.49,0,0,0,10.7569-12.052c3.2249-8.4552,1.6862-16.3175-3.8807-23.2563C167.09,40.6677,152.8063,37.4446,140.1639,43.0807Z" fill="currentColor"/>
    <path d="M125.4817,333.8992c-1.3165,1.4637-1.3574,1.4988.4548,2.9865.28-.3762.5663-.786.8772-1.1764,2.5568-3.2114,5.3115-6.2861,7.633-9.6592,3.4813-5.0584,6.2575-10.5279,6.8507-16.7632,1.1227-11.8-2.8827-21.3424-12.9657-27.9462a23.36,23.36,0,0,0-26.3868,1.17c-9.7525,7.6127-13.0908,20.7547-9.5346,32.784a43.0871,43.0871,0,0,0,8.6229,15.8825c5.7623,6.7363,11.8361,13.2064,17.78,19.7875,3.7323,4.1327,7.4915,8.235,10.0529,13.2651,3.6111,7.0911,2.76,15.0405-2.3523,20.5911a13.5551,13.5551,0,0,1-9.3484,4.6692,14.117,14.117,0,0,1-14.1307-8.9337c-2.4554-5.7118-2.0378-11.3743.5423-16.9424a43.8918,43.8918,0,0,1,7.8361-11.0337c.8188-.8935.3-1.2652-.22-1.8513-.7108-.8017-1.071-.0881-1.4489.3216A48.8,48.8,0,0,0,102.28,361.385c-3.18,6.0489-4.0413,12.3823-1.7891,18.9093,4.1569,12.0465,18.0886,15.9558,27.3358,6.5917,5.4121-5.4805,6.8587-14.8665,3.59-22.22a46.4736,46.4736,0,0,0-8.134-12.0808c-5.0244-5.603-10.2033-11.0673-15.2993-16.6064-4.3275-4.7038-8.3922-9.6169-11.1855-15.4205-3.1911-6.63-4.5858-13.5542-2.9967-20.8891,1.4159-6.5352,4.6293-11.9605,10.2317-15.7009a21.7553,21.7553,0,0,1,26.5872,1.97c8.2963,7.3708,11.3269,18.6535,6.8641,29.9537C134.7751,322.75,130.3546,328.4816,125.4817,333.8992Z" fill="currentColor"/>
    <path d="M220.4817,242.8992c-1.3165,1.4637-1.3574,1.4988.4548,2.9865.28-.3762.5663-.786.8772-1.1764,2.5568-3.2114,5.3115-6.2861,7.633-9.6592,3.4813-5.0584,6.2575-10.5279,6.8507-16.7632,1.1227-11.8-2.8827-21.3424-12.9657-27.9462a23.36,23.36,0,0,0-26.3868,1.17c-9.7525,7.6127-13.0908,20.7547-9.5346,32.784a43.0871,43.0871,0,0,0,8.6229,15.8825c5.7623,6.7363,11.8361,13.2064,17.78,19.7875,3.7323,4.1327,7.4915,8.235,10.0529,13.2651,3.6111,7.0911,2.76,15.0405-2.3523,20.5911a13.5551,13.5551,0,0,1-9.3484,4.6692,14.117,14.117,0,0,1-14.1307-8.9337c-2.4554-5.7118-2.0378-11.3743.5423-16.9424a43.8918,43.8918,0,0,1,7.8361-11.0337c.8188-.8935.3-1.2652-.22-1.8513-.7108-.8017-1.071-.0881-1.4489.3216A48.8,48.8,0,0,0,197.28,270.385c-3.1805,6.0489-4.0413,12.3823-1.7891,18.9093,4.1569,12.0465,18.0886,15.9558,27.3358,6.5917,5.4121-5.4805,6.8587-14.8665,3.59-22.22a46.4736,46.4736,0,0,0-8.134-12.0808c-5.0244-5.603-10.2033-11.0673-15.2993-16.6064-4.3275-4.7038-8.3922-9.6169-11.1855-15.4205-3.1911-6.63-4.5858-13.5542-2.9967-20.8891,1.4159-6.5352,4.6293-11.96,10.2317-15.7009a21.7553,21.7553,0,0,1,26.5872,1.97c8.2963,7.3708,11.3269,18.6535,6.8641,29.9537C229.7751,231.75,225.3546,237.4816,220.4817,242.8992Z" fill="currentColor"/>
    <path d="M153.9088,145.2887a23.3605,23.3605,0,0,0,1.17,26.3868c7.6127,9.7525,20.7547,13.0909,32.784,9.5346a43.0856,43.0856,0,0,0,15.8825-8.6229c6.7364-5.7622,13.2064-11.836,19.7876-17.78,4.1326-3.7323,8.2349-7.4914,13.265-10.0529,7.0911-3.611,15.0406-2.76,20.5911,2.3524a13.5547,13.5547,0,0,1,4.6692,9.3483,14.1171,14.1171,0,0,1-8.9337,14.1308c-5.7118,2.4553-11.3743,2.0377-16.9424-.5423a43.8892,43.8892,0,0,1-11.0336-7.8362c-.8936-.8187-1.2653-.3-1.8514.2195-.8017.7108-.088,1.0711.3216,1.449a48.8057,48.8057,0,0,0,10.3343,7.4648c6.0489,3.1806,12.3823,4.0414,18.9094,1.7892,12.0464-4.1569,15.9557-18.0887,6.5917-27.3358-5.4806-5.4122-14.8666-6.8588-22.22-3.59a46.475,46.475,0,0,0-12.0809,8.134c-5.603,5.0244-11.0673,10.2033-16.6064,15.2993-4.7038,4.3275-9.6168,8.3923-15.4205,11.1855-6.63,3.1911-13.5542,4.5859-20.8891,2.9967-6.5352-1.4159-11.96-4.6293-15.7008-10.2317a21.7552,21.7552,0,0,1,1.97-26.5872c7.3709-8.2963,18.6535-11.3269,29.9537-6.8641,6.8586,2.7087,12.59,7.1293,18.0075,12.0022,1.4637,1.3164,1.4988,1.3574,2.9865-.4549-.3762-.28-.786-.5663-1.1764-.8771-3.2114-2.5569-6.2861-5.3116-9.6591-7.633-5.0585-3.4814-10.528-6.2576-16.7633-6.8508C170.0552,131.2,160.5126,135.2057,153.9088,145.2887Z" fill="currentColor"/>
    <path d="M58.9088,236.2887a23.3605,23.3605,0,0,0,1.17,26.3868c7.6127,9.7525,20.7547,13.0909,32.784,9.5346a43.0856,43.0856,0,0,0,15.8825-8.6229c6.7364-5.7622,13.2064-11.836,19.7876-17.78,4.1326-3.7323,8.2349-7.4914,13.265-10.0529,7.0911-3.611,15.0406-2.76,20.5911,2.3524a13.5547,13.5547,0,0,1,4.6692,9.3483,14.1171,14.1171,0,0,1-8.9337,14.1308c-5.7118,2.4553-11.3743,2.0377-16.9424-.5423a43.8892,43.8892,0,0,1-11.0336-7.8362c-.8936-.8187-1.2653-.3-1.8514.2195-.8017.7108-.088,1.0711.3216,1.449a48.8057,48.8057,0,0,0,10.3343,7.4648c6.0489,3.1806,12.3823,4.0414,18.9094,1.7892,12.0464-4.1569,15.9557-18.0887,6.5917-27.3358-5.4806-5.4122-14.8666-6.8588-22.22-3.59a46.475,46.475,0,0,0-12.0809,8.134c-5.603,5.0244-11.0673,10.2033-16.6064,15.2993-4.7038,4.3275-9.6168,8.3923-15.4205,11.1855-6.63,3.1911-13.5542,4.5859-20.8891,2.9967-6.5352-1.4159-11.96-4.6293-15.7008-10.2317a21.7552,21.7552,0,0,1,1.97-26.5872c7.3709-8.2963,18.6535-11.3269,29.9537-6.8641,6.8586,2.7087,12.59,7.1293,18.0075,12.0022,1.4637,1.3164,1.4988,1.3574,2.9865-.4549-.3762-.28-.786-.5663-1.1764-.8771-3.2114-2.5569-6.2861-5.3116-9.6591-7.633-5.0585-3.4814-10.528-6.2576-16.7633-6.8508C75.0552,222.2,65.5126,226.2057,58.9088,236.2887Z" fill="currentColor"/>
    <path d="M127.4817,150.8992c-1.3165,1.4637-1.3574,1.4988.4548,2.9865.28-.3762.5663-.786.8772-1.1764,2.5568-3.2114,5.3115-6.2861,7.633-9.6592,3.4813-5.0584,6.2575-10.5279,6.8507-16.7632,1.1227-11.8-2.8827-21.3424-12.9657-27.9462a23.36,23.36,0,0,0-26.3868,1.17c-9.7525,7.6127-13.0908,20.7547-9.5346,32.784a43.0871,43.0871,0,0,0,8.6229,15.8825c5.7623,6.7363,11.8361,13.2064,17.78,19.7875,3.7323,4.1327,7.4915,8.235,10.0529,13.2651,3.6111,7.0911,2.76,15.0405-2.3523,20.5911a13.5551,13.5551,0,0,1-9.3484,4.6692,14.117,14.117,0,0,1-14.1307-8.9337c-2.4554-5.7118-2.0378-11.3743.5423-16.9424a43.8918,43.8918,0,0,1,7.8361-11.0337c.8188-.8935.3-1.2652-.22-1.8513-.7108-.8017-1.071-.0881-1.4489.3216A48.8,48.8,0,0,0,104.28,178.385c-3.18,6.0489-4.0413,12.3823-1.7891,18.9093,4.1569,12.0465,18.0886,15.9558,27.3358,6.5917,5.4121-5.4805,6.8587-14.8665,3.59-22.22a46.4736,46.4736,0,0,0-8.134-12.0808c-5.0244-5.603-10.2033-11.0673-15.2993-16.6064-4.3275-4.7038-8.3922-9.6169-11.1855-15.4205-3.1911-6.63-4.5858-13.5542-2.9967-20.8891,1.4159-6.5352,4.6293-11.9605,10.2317-15.7009a21.7553,21.7553,0,0,1,26.5872,1.97c8.2963,7.3708,11.3269,18.6535,6.8641,29.9537C136.7751,139.75,132.3546,145.4816,127.4817,150.8992Z" fill="currentColor"/>
    <path d="M97.1285,206.576a23.49,23.49,0,0,0,12.0521,10.7569c8.4551,3.2248,16.3174,1.6861,23.2562-3.8807,10.7617-8.6339,13.9848-22.918,8.3487-35.56a63.43,63.43,0,0,0-10.16-15.428c-4.9307-5.733-10.0881-11.2711-15.1487-16.8923-3.3665-3.7393-6.7582-7.4586-9.1688-11.9328-2.8406-5.272-3.7326-10.7411-1.7246-16.5237,3.2721-9.4226,14.22-12.9865,22.0235-7.0035,5.5746,4.274,7.1829,10.21,6.1729,16.9523-.6671,4.4538-2.9824,8.1856-5.5844,11.7311-1.3089,1.7837-2.8116,3.4251-4.307,5.2279l1.5567,1.4892a49.0887,49.0887,0,0,0,7.43-9.9453c4.4314-8.2229,4.8428-16.3681-.8279-24.2588a15.8167,15.8167,0,0,0-20.5113-4.7458c-5.8563,3.355-8.6061,8.7915-9.1789,15.3623A22.5659,22.5659,0,0,0,106.1,137.5737c3.5157,4.7326,7.4549,9.1677,11.4044,13.5569,5.3412,5.9358,10.8937,11.681,15.6262,18.1406a49.2749,49.2749,0,0,1,6.779,12.2377,26.539,26.539,0,0,1-11.4647,31.767c-7.8786,4.4632-15.764,4.3056-23.2667-1.0084a23.6754,23.6754,0,0,1-8.73-12.538c-2.404-7.45-1.2971-14.631,1.7713-21.6226a56.7073,56.7073,0,0,1,10.7224-15.5794c.2755-.2979.5471-.6.8156-.8941l-1.3961-1.4442a1.2956,1.2956,0,0,0-.2646.1265c-.2008.1781-.4007.3585-.5871.5513a55.0866,55.0866,0,0,0-11.6041,17.1623C91.8838,187.7172,91.807,197.2905,97.1285,206.576Z" fill="currentColor"/>
    <path d="M390.1806,310.3329c8.4551,3.2248,16.3174,1.6861,23.2562-3.8807,10.7617-8.6339,13.9848-22.918,8.3487-35.56a63.43,63.43,0,0,0-10.16-15.428c-4.9307-5.733-10.0881-11.2711-15.1487-16.8923-3.3665-3.7393-6.7582-7.4586-9.1688-11.9328-2.8406-5.272-3.7326-10.7411-1.7246-16.5237,3.2721-9.4226,14.22-12.9865,22.0235-7.0035,5.5746,4.274,7.1829,10.21,6.1729,16.9523-.6671,4.4538-2.9824,8.1856-5.5844,11.7311-1.3089,1.7837-2.8116,3.4251-4.307,5.2279l1.5567,1.4892a49.0887,49.0887,0,0,0,7.43-9.9453c4.4314-8.2229,4.8428-16.3681-.8279-24.2588a15.8167,15.8167,0,0,0-20.5113-4.7458c-5.8563,3.355-8.6061,8.7915-9.1789,15.3623A22.5659,22.5659,0,0,0,387.1,230.5737c3.5157,4.7326,7.4549,9.1677,11.4044,13.5569,5.3412,5.9358,10.8937,11.681,15.6262,18.1406a49.2749,49.2749,0,0,1,6.779,12.2377,26.539,26.539,0,0,1-11.4647,31.767c-7.8786,4.4632-15.764,4.3056-23.2667-1.0084a23.6754,23.6754,0,0,1-8.73-12.538c-2.404-7.45-1.2971-14.631,1.7713-21.6226a56.7073,56.7073,0,0,1,10.7224-15.5794c.2755-.2979.5471-.6.8156-.8941l-1.3961-1.4442a1.2956,1.2956,0,0,0-.2646.1265c-.2008.1781-.4007.3585-.5871.5513a55.0866,55.0866,0,0,0-11.6041,17.1623c-4.0217,9.6879-4.0985,19.2612,1.223,28.5467A23.49,23.49,0,0,0,390.1806,310.3329Z" fill="currentColor"/>
    <path d="M295.1806,401.3329c8.4551,3.2248,16.3174,1.6861,23.2562-3.8807,10.7617-8.6339,13.9848-22.918,8.3487-35.56a63.43,63.43,0,0,0-10.16-15.428c-4.9307-5.733-10.0881-11.2711-15.1487-16.8923-3.3665-3.7393-6.7582-7.4586-9.1688-11.9328-2.8406-5.272-3.7326-10.7411-1.7246-16.5237,3.2721-9.4226,14.22-12.9865,22.0235-7.0035,5.5746,4.274,7.1829,10.21,6.1729,16.9523-.6671,4.4538-2.9824,8.1856-5.5844,11.7311-1.3089,1.7837-2.8116,3.4251-4.307,5.2279l1.5567,1.4892a49.0887,49.0887,0,0,0,7.43-9.9453c4.4314-8.2229,4.8428-16.3681-.8279-24.2588a15.8167,15.8167,0,0,0-20.5113-4.7458c-5.8563,3.355-8.6061,8.7915-9.1789,15.3623A22.5659,22.5659,0,0,0,292.1,321.5737c3.5157,4.7326,7.4549,9.1677,11.4044,13.5569,5.3412,5.9358,10.8937,11.681,15.6262,18.1406a49.2749,49.2749,0,0,1,6.779,12.2377,26.539,26.539,0,0,1-11.4647,31.767c-7.8786,4.4632-15.764,4.3056-23.2667-1.0084a23.6754,23.6754,0,0,1-8.73-12.538c-2.404-7.45-1.2971-14.631,1.7713-21.6226a56.7073,56.7073,0,0,1,10.7224-15.5794c.2755-.2979.5471-.6.8156-.8941l-1.3961-1.4442a1.2956,1.2956,0,0,0-.2646.1265c-.2008.1781-.4007.3585-.5871.5513a55.0866,55.0866,0,0,0-11.6041,17.1623c-4.0217,9.6879-4.0985,19.2612,1.223,28.5467A23.49,23.49,0,0,0,295.1806,401.3329Z" fill="currentColor"/>
    <path d="M355.1441,270.4919A23.4893,23.4893,0,0,0,365.901,258.44c3.2249-8.4551,1.6862-16.3174-3.8807-23.2562-8.6339-10.7617-22.9179-13.9848-35.56-8.3487a63.4292,63.4292,0,0,0-15.428,10.16c-5.733,4.9307-11.2711,10.0881-16.8924,15.1487-3.7393,3.3665-7.4586,6.7583-11.9328,9.1689-5.272,2.8405-10.741,3.7325-16.5237,1.7245-9.4226-3.272-12.9864-14.22-7.0035-22.0235,4.2741-5.5746,10.21-7.1829,16.9524-6.1729,4.4537.6671,8.1855,2.9825,11.731,5.5844,1.7837,1.309,3.4251,2.8116,5.2279,4.3071l1.4892-1.5567a49.085,49.085,0,0,0-9.9453-7.43c-8.2229-4.4315-16.3681-4.8429-24.2588.8278a15.8168,15.8168,0,0,0-4.7458,20.5113c3.355,5.8563,8.7916,8.6062,15.3623,9.1789a22.5654,22.5654,0,0,0,15.6493-4.7433c4.7327-3.5157,9.1677-7.4549,13.5569-11.4044,5.9359-5.3412,11.6811-10.8937,18.1406-15.6262a49.2781,49.2781,0,0,1,12.2377-6.779,26.5389,26.5389,0,0,1,31.767,11.4647c4.4633,7.8786,4.3057,15.7641-1.0084,23.2667a23.6752,23.6752,0,0,1-12.538,8.7305c-7.45,2.4039-14.631,1.297-21.6226-1.7714a56.7073,56.7073,0,0,1-15.5794-10.7224c-.2979-.2755-.6-.5471-.8941-.8156l-1.4442,1.3961a1.284,1.284,0,0,0,.1266.2646c.178.2008.3584.4007.5512.5871a55.0886,55.0886,0,0,0,17.1623,11.6042C336.2853,275.7366,345.8586,275.8134,355.1441,270.4919Z" fill="currentColor"/>
    <path d="M373.8629,365.21a43.0856,43.0856,0,0,0,15.8825-8.6229c6.7364-5.7622,13.2064-11.836,19.7876-17.78,4.1326-3.7323,8.2349-7.4914,13.265-10.0529,7.0911-3.611,15.0406-2.76,20.5911,2.3524a13.5547,13.5547,0,0,1,4.6692,9.3483,14.1171,14.1171,0,0,1-8.9337,14.1308c-5.7118,2.4553-11.3743,2.0377-16.9424-.5423a43.8892,43.8892,0,0,1-11.0336-7.8362c-.8936-.8187-1.2653-.3-1.8514.2195-.8017.7108-.088,1.0711.3216,1.449a48.8057,48.8057,0,0,0,10.3343,7.4648c6.0489,3.1806,12.3823,4.0414,18.9094,1.7892,12.0464-4.1569,15.9557-18.0887,6.5917-27.3358-5.4806-5.4122-14.8666-6.8588-22.22-3.59a46.475,46.475,0,0,0-12.0809,8.134c-5.603,5.0244-11.0673,10.2033-16.6064,15.2993-4.7038,4.3275-9.6168,8.3923-15.4205,11.1855-6.63,3.1911-13.5542,4.5859-20.8891,2.9967-6.5352-1.4159-11.96-4.6293-15.7008-10.2317a21.7552,21.7552,0,0,1,1.9695-26.5872c7.3709-8.2963,18.6535-11.3269,29.9537-6.8641,6.8586,2.7087,12.59,7.1293,18.0075,12.0022,1.4637,1.3164,1.4988,1.3574,2.9865-.4549-.3762-.28-.786-.5663-1.1764-.8771-3.2114-2.5569-6.2861-5.3116-9.6591-7.633-5.0585-3.4814-10.528-6.2576-16.7633-6.8508-11.8-1.1226-21.3424,2.8827-27.9462,12.9657a23.3605,23.3605,0,0,0,1.17,26.3868C348.6916,365.428,361.8336,368.7664,373.8629,365.21Z" fill="currentColor"/>
    <path d="M484.7454,265.5872c6.7364-5.7622,13.2064-11.836,19.7876-17.78,4.1326-3.7323,8.2349-7.4914,13.265-10.0529,7.0911-3.611,15.0406-2.76,20.5911,2.3524a13.5547,13.5547,0,0,1,4.6692,9.3483,14.1171,14.1171,0,0,1-8.9337,14.1308c-5.7118,2.4553-11.3743,2.0377-16.9424-.5423a43.8892,43.8892,0,0,1-11.0336-7.8362c-.8936-.8187-1.2653-.3-1.8514.2195-.8017.7108-.088,1.0711.3216,1.449a48.8057,48.8057,0,0,0,10.3343,7.4648c6.0489,3.1806,12.3823,4.0414,18.9094,1.7892,12.0464-4.1569,15.9557-18.0887,6.5917-27.3358-5.4806-5.4122-14.8666-6.8588-22.22-3.59a46.475,46.475,0,0,0-12.0809,8.134c-5.603,5.0244-11.0673,10.2033-16.6064,15.2993-4.7038,4.3275-9.6168,8.3923-15.4205,11.1855-6.63,3.1911-13.5542,4.5859-20.8891,2.9967-6.5352-1.4159-11.96-4.6293-15.7008-10.2317a21.7552,21.7552,0,0,1,1.9695-26.5872c7.3709-8.2963,18.6535-11.3269,29.9537-6.8641,6.8586,2.7087,12.59,7.1293,18.0075,12.0022,1.4637,1.3164,1.4988,1.3574,2.9865-.4549-.3762-.28-.786-.5663-1.1764-.8771-3.2114-2.5569-6.2861-5.3116-9.6591-7.633-5.0585-3.4814-10.528-6.2576-16.7633-6.8508-11.8-1.1226-21.3424,2.8827-27.9462,12.9657a23.3605,23.3605,0,0,0,1.17,26.3868c7.6127,9.7525,20.7547,13.0909,32.784,9.5346A43.0856,43.0856,0,0,0,484.7454,265.5872Z" fill="currentColor"/>
    <path d="M448.1441,362.4919A23.4893,23.4893,0,0,0,458.901,350.44c3.2249-8.4551,1.6862-16.3174-3.8807-23.2562-8.6339-10.7617-22.9179-13.9848-35.56-8.3487a63.4292,63.4292,0,0,0-15.428,10.16c-5.733,4.9307-11.2711,10.0881-16.8924,15.1487-3.7393,3.3665-7.4586,6.7583-11.9328,9.1689-5.272,2.8405-10.741,3.7325-16.5237,1.7245-9.4226-3.272-12.9864-14.22-7.0035-22.0235,4.2741-5.5746,10.21-7.1829,16.9524-6.1729,4.4537.6671,8.1855,2.9825,11.731,5.5844,1.7837,1.309,3.4251,2.8116,5.2279,4.3071l1.4892-1.5567a49.085,49.085,0,0,0-9.9453-7.43c-8.2229-4.4315-16.3681-4.8429-24.2588.8278a15.8168,15.8168,0,0,0-4.7458,20.5113c3.355,5.8563,8.7916,8.6062,15.3623,9.1789a22.5654,22.5654,0,0,0,15.6493-4.7433c4.7327-3.5157,9.1677-7.4549,13.5569-11.4044,5.9359-5.3412,11.6811-10.8937,18.1406-15.6262a49.2781,49.2781,0,0,1,12.2377-6.779,26.5389,26.5389,0,0,1,31.767,11.4647c4.4633,7.8786,4.3057,15.7641-1.0084,23.2667a23.6752,23.6752,0,0,1-12.538,8.7305c-7.45,2.4039-14.631,1.297-21.6226-1.7714a56.7073,56.7073,0,0,1-15.5794-10.7224c-.2979-.2755-.6-.5471-.8941-.8156l-1.4442,1.3961a1.284,1.284,0,0,0,.1266.2646c.178.2008.3584.4007.5512.5871a55.0886,55.0886,0,0,0,17.1623,11.6042C429.2853,367.7366,438.8586,367.8134,448.1441,362.4919Z" fill="currentColor"/>
    <path d="M313.4817,334.8992c-1.3165,1.4637-1.3574,1.4988.4548,2.9865.28-.3762.5663-.786.8772-1.1764,2.5568-3.2114,5.3115-6.2861,7.633-9.6592,3.4813-5.0584,6.2575-10.5279,6.8507-16.7632,1.1227-11.8-2.8827-21.3424-12.9657-27.9462a23.36,23.36,0,0,0-26.3868,1.17c-9.7525,7.6127-13.0908,20.7547-9.5346,32.784a43.0871,43.0871,0,0,0,8.6229,15.8825c5.7623,6.7363,11.8361,13.2064,17.78,19.7875,3.7323,4.1327,7.4915,8.235,10.0529,13.2651,3.6111,7.0911,2.76,15.0405-2.3523,20.5911a13.5551,13.5551,0,0,1-9.3484,4.6692,14.117,14.117,0,0,1-14.1307-8.9337c-2.4554-5.7118-2.0378-11.3743.5423-16.9424a43.8918,43.8918,0,0,1,7.8361-11.0337c.8188-.8935.3-1.2652-.2195-1.8513-.7108-.8017-1.071-.0881-1.4489.3216A48.8,48.8,0,0,0,290.28,362.385c-3.18,6.0489-4.0413,12.3823-1.7891,18.9093,4.1569,12.0465,18.0886,15.9558,27.3358,6.5917,5.4121-5.4805,6.8587-14.8665,3.59-22.22a46.4736,46.4736,0,0,0-8.134-12.0808c-5.0244-5.603-10.2033-11.0673-15.2993-16.6064-4.3275-4.7038-8.3922-9.6169-11.1855-15.4205-3.1911-6.63-4.5858-13.5542-2.9967-20.8891,1.4159-6.5352,4.6293-11.9605,10.2317-15.7009a21.7553,21.7553,0,0,1,26.5872,1.97c8.2963,7.3708,11.3269,18.6535,6.8641,29.9537C322.7751,323.75,318.3546,329.4816,313.4817,334.8992Z" fill="currentColor"/>
    <path d="M450.1441,179.4919A23.4893,23.4893,0,0,0,460.901,167.44c3.2249-8.4551,1.6862-16.3174-3.8807-23.2562-8.6339-10.7617-22.9179-13.9848-35.56-8.3487a63.4292,63.4292,0,0,0-15.428,10.16c-5.733,4.9307-11.2711,10.0881-16.8924,15.1487-3.7393,3.3665-7.4586,6.7583-11.9328,9.1689-5.272,2.84-10.741,3.7325-16.5237,1.7245-9.4226-3.272-12.9864-14.22-7.0035-22.0235,4.2741-5.5746,10.21-7.1829,16.9524-6.1729,4.4537.6671,8.1855,2.9825,11.731,5.5844,1.7837,1.309,3.4251,2.8116,5.2279,4.3071l1.4892-1.5567a49.085,49.085,0,0,0-9.9453-7.43c-8.2229-4.4315-16.3681-4.8429-24.2588.8278a15.8168,15.8168,0,0,0-4.7458,20.5113c3.355,5.8563,8.7916,8.6062,15.3623,9.1789a22.5654,22.5654,0,0,0,15.6493-4.7433c4.7327-3.5157,9.1677-7.4549,13.5569-11.4044,5.9359-5.3412,11.6811-10.8937,18.1406-15.6262a49.2781,49.2781,0,0,1,12.2377-6.779,26.5389,26.5389,0,0,1,31.767,11.4647c4.4633,7.8786,4.3057,15.7641-1.0084,23.2667a23.6752,23.6752,0,0,1-12.538,8.7305c-7.45,2.4039-14.631,1.297-21.6226-1.7714a56.7073,56.7073,0,0,1-15.5794-10.7224c-.2979-.2755-.6-.5471-.8941-.8156l-1.4442,1.3961a1.284,1.284,0,0,0,.1266.2646c.178.2008.3584.4007.5512.5871a55.0886,55.0886,0,0,0,17.1623,11.6042C431.2853,184.7366,440.8586,184.8134,450.1441,179.4919Z" fill="currentColor"/>
    <path d="M199.0967,435.3157c-.2008.1781-.4007.3585-.5871.5513a55.0866,55.0866,0,0,0-11.6041,17.1623A41.9968,41.9968,0,0,0,185.4871,457h2.244q.6346-1.9568,1.4883-3.8931a56.7073,56.7073,0,0,1,10.7224-15.5794c.2755-.2979.5471-.6.8156-.8941l-1.3961-1.4442A1.2956,1.2956,0,0,0,199.0967,435.3157Z" fill="currentColor"/>
    <path d="M221.3317,373.3407a23.36,23.36,0,0,0-26.3868,1.17c-9.7525,7.6127-13.0908,20.7547-9.5346,32.784a43.0871,43.0871,0,0,0,8.6229,15.8825c5.7623,6.7363,11.8361,13.2064,17.78,19.7875,3.7323,4.1327,7.4915,8.235,10.0529,13.2651.13.2549.2411.5131.3594.77h2.3241c-.0466-.11-.0843-.2244-.133-.3339a46.4736,46.4736,0,0,0-8.134-12.0808c-5.0244-5.603-10.2033-11.0673-15.2993-16.6064-4.3275-4.7038-8.3922-9.6169-11.1855-15.4205-3.1911-6.63-4.5858-13.5542-2.9967-20.8891,1.4159-6.5352,4.6293-11.9605,10.2317-15.7009a21.7553,21.7553,0,0,1,26.5872,1.97c8.2963,7.3708,11.3269,18.6535,6.8641,29.9537-2.7087,6.8586-7.1292,12.59-12.0021,18.0075-1.3165,1.4637-1.3574,1.4988.4548,2.9865.28-.3762.5663-.786.8772-1.1764,2.5568-3.2114,5.3115-6.2861,7.633-9.6592,3.4813-5.0584,6.2575-10.5279,6.8507-16.7632C235.42,389.4871,231.4147,379.9445,221.3317,373.3407Z" fill="currentColor"/>
    <path d="M296.7454,264.5872c6.7364-5.7622,13.2064-11.836,19.7876-17.78,4.1326-3.7323,8.2349-7.4914,13.265-10.0529,7.0911-3.611,15.0406-2.76,20.5911,2.3524a13.5547,13.5547,0,0,1,4.6692,9.3483,14.1171,14.1171,0,0,1-8.9337,14.1308c-5.7118,2.4553-11.3743,2.0377-16.9424-.5423a43.8892,43.8892,0,0,1-11.0336-7.8362c-.8936-.8187-1.2653-.3-1.8514.2195-.8017.7108-.088,1.0711.3216,1.449a48.8057,48.8057,0,0,0,10.3343,7.4648c6.0489,3.1806,12.3823,4.0414,18.9094,1.7892,12.0464-4.1569,15.9557-18.0887,6.5917-27.3358-5.4806-5.4122-14.8666-6.8588-22.22-3.59a46.475,46.475,0,0,0-12.0809,8.134c-5.603,5.0244-11.0673,10.2033-16.6064,15.2993-4.7038,4.3275-9.6168,8.3923-15.4205,11.1855-6.63,3.1911-13.5542,4.5859-20.8891,2.9967-6.5352-1.4159-11.96-4.6293-15.7008-10.2317a21.7552,21.7552,0,0,1,1.97-26.5872c7.3709-8.2963,18.6535-11.3269,29.9537-6.8641,6.8586,2.7087,12.59,7.1293,18.0075,12.0022,1.4637,1.3164,1.4988,1.3574,2.9865-.4549-.3762-.28-.786-.5663-1.1764-.8771-3.2114-2.5569-6.2861-5.3116-9.6591-7.633-5.0585-3.4814-10.528-6.2576-16.7633-6.8508-11.8-1.1226-21.3424,2.8827-27.9462,12.9657a23.3605,23.3605,0,0,0,1.17,26.3868c7.6127,9.7525,20.7547,13.0909,32.784,9.5346A43.0856,43.0856,0,0,0,296.7454,264.5872Z" fill="currentColor"/>
    <path d="M260.1441,361.4919A23.4893,23.4893,0,0,0,270.901,349.44c3.2249-8.4551,1.6862-16.3174-3.8807-23.2562-8.6339-10.7617-22.9179-13.9848-35.56-8.3487a63.4292,63.4292,0,0,0-15.428,10.16c-5.733,4.9307-11.2711,10.0881-16.8924,15.1487-3.7393,3.3665-7.4586,6.7583-11.9328,9.1689-5.272,2.8405-10.741,3.7325-16.5237,1.7245-9.4226-3.272-12.9864-14.22-7.0035-22.0235,4.2741-5.5746,10.21-7.1829,16.9524-6.1729,4.4537.6671,8.1855,2.9825,11.731,5.5844,1.7837,1.309,3.4251,2.8116,5.2279,4.3071l1.4892-1.5567a49.085,49.085,0,0,0-9.9453-7.43c-8.2229-4.4315-16.3681-4.8429-24.2588.8278a15.8168,15.8168,0,0,0-4.7458,20.5113c3.355,5.8563,8.7916,8.6062,15.3623,9.1789a22.5654,22.5654,0,0,0,15.6493-4.7433c4.7327-3.5157,9.1677-7.4549,13.5569-11.4044,5.9359-5.3412,11.6811-10.8937,18.1406-15.6262a49.2781,49.2781,0,0,1,12.2377-6.779,26.5389,26.5389,0,0,1,31.767,11.4647c4.4633,7.8786,4.3057,15.7641-1.0084,23.2667a23.6752,23.6752,0,0,1-12.538,8.7305c-7.45,2.4039-14.631,1.297-21.6226-1.7714a56.7073,56.7073,0,0,1-15.5794-10.7224c-.2979-.2755-.6-.5471-.8941-.8156l-1.4442,1.3961a1.284,1.284,0,0,0,.1266.2646c.178.2008.3584.4007.5512.5871a55.0886,55.0886,0,0,0,17.1623,11.6042C241.2853,366.7366,250.8586,366.8134,260.1441,361.4919Z" fill="currentColor"/>
    <path d="M551.901,442.44c3.2249-8.4551,1.6862-16.3174-3.8807-23.2562-8.6339-10.7617-22.9179-13.9848-35.56-8.3487a63.4292,63.4292,0,0,0-15.428,10.16c-5.733,4.9307-11.2711,10.0881-16.8924,15.1487-3.7393,3.3665-7.4586,6.7583-11.9328,9.1689-5.272,2.8405-10.741,3.7325-16.5237,1.7245-9.4226-3.272-12.9864-14.22-7.0035-22.0235,4.2741-5.5746,10.21-7.1829,16.9524-6.1729,4.4537.6671,8.1855,2.9825,11.731,5.5844,1.7837,1.309,3.4251,2.8116,5.2279,4.3071l1.4892-1.5567a49.085,49.085,0,0,0-9.9453-7.43c-8.2229-4.4315-16.3681-4.8429-24.2588.8278a15.8168,15.8168,0,0,0-4.7458,20.5113c3.355,5.8563,8.7916,8.6062,15.3623,9.1789a22.5654,22.5654,0,0,0,15.6493-4.7433c4.7327-3.5157,9.1677-7.4549,13.5569-11.4044,5.9359-5.3412,11.6811-10.8937,18.1406-15.6262a49.2781,49.2781,0,0,1,12.2377-6.779,26.5389,26.5389,0,0,1,31.767,11.4647c4.4633,7.8786,4.3057,15.7641-1.0084,23.2667a23.6752,23.6752,0,0,1-12.538,8.7305c-7.45,2.4039-14.631,1.297-21.6226-1.7714a56.7073,56.7073,0,0,1-15.5794-10.7224c-.2979-.2755-.6-.5471-.8941-.8156l-1.4442,1.3961a1.284,1.284,0,0,0,.1266.2646c.178.2008.3584.4007.5512.5871a55.0886,55.0886,0,0,0,17.1623,11.6042q1.7642.7323,3.5228,1.285h19.54a32.3993,32.3993,0,0,0,5.4836-2.5081A23.4893,23.4893,0,0,0,551.901,442.44Z" fill="currentColor"/>
    <path d="M363.901,441.44c3.2249-8.4551,1.6862-16.3174-3.8807-23.2562-8.6339-10.7617-22.9179-13.9848-35.56-8.3487a63.4292,63.4292,0,0,0-15.428,10.16c-5.733,4.9307-11.2711,10.0881-16.8924,15.1487-3.7393,3.3665-7.4586,6.7583-11.9328,9.1689-5.272,2.8405-10.741,3.7325-16.5237,1.7245-9.4226-3.272-12.9864-14.22-7.0035-22.0235,4.2741-5.5746,10.21-7.1829,16.9524-6.1729,4.4537.6671,8.1855,2.9825,11.731,5.5844,1.7837,1.309,3.4251,2.8116,5.2279,4.3071l1.4892-1.5567a49.085,49.085,0,0,0-9.9453-7.43c-8.2229-4.4315-16.3681-4.8429-24.2588.8278a15.8168,15.8168,0,0,0-4.7458,20.5113c3.355,5.8563,8.7916,8.6062,15.3623,9.1789a22.5654,22.5654,0,0,0,15.6493-4.7433c4.7327-3.5157,9.1677-7.4549,13.5569-11.4044,5.9359-5.3412,11.6811-10.8937,18.1406-15.6262a49.2781,49.2781,0,0,1,12.2377-6.779,26.5389,26.5389,0,0,1,31.767,11.4647c4.4633,7.8786,4.3057,15.7641-1.0084,23.2667a23.6752,23.6752,0,0,1-12.538,8.7305c-7.45,2.4039-14.631,1.297-21.6226-1.7714a56.7073,56.7073,0,0,1-15.5794-10.7224c-.2979-.2755-.6-.5471-.8941-.8156l-1.4442,1.3961a1.284,1.284,0,0,0,.1266.2646c.178.2008.3584.4007.5512.5871a55.0886,55.0886,0,0,0,17.1623,11.6042A39.2546,39.2546,0,0,0,332.0168,457h12.044a31.01,31.01,0,0,0,9.0833-3.5081A23.4893,23.4893,0,0,0,363.901,441.44Z" fill="currentColor"/>
    <path d="M564,452.5914q-.5781,1.1986-1.0945,2.4379c-.273.6575-.524,1.3143-.76,1.9707H564Z" fill="currentColor"/>
    <path d="M294.7454,447.5872c6.7364-5.7622,13.2064-11.836,19.7876-17.78,4.1326-3.7323,8.2349-7.4914,13.265-10.0529,7.0911-3.611,15.0406-2.76,20.5911,2.3524a13.5547,13.5547,0,0,1,4.6692,9.3483,14.1171,14.1171,0,0,1-8.9337,14.1308c-5.7118,2.4553-11.3743,2.0377-16.9424-.5423a43.8892,43.8892,0,0,1-11.0336-7.8362c-.8936-.8187-1.2653-.3-1.8514.2195-.8017.7108-.088,1.0711.3216,1.449a48.8057,48.8057,0,0,0,10.3343,7.4648c6.0489,3.1806,12.3823,4.0414,18.9094,1.7892,12.0464-4.1569,15.9557-18.0887,6.5917-27.3358-5.4806-5.4122-14.8666-6.8588-22.22-3.59a46.475,46.475,0,0,0-12.0809,8.134c-5.603,5.0244-11.0673,10.2033-16.6064,15.2993-4.7038,4.3275-9.6168,8.3923-15.4205,11.1855-6.63,3.1911-13.5542,4.5859-20.8891,2.9967-6.5352-1.4159-11.96-4.6293-15.7008-10.2317a21.7552,21.7552,0,0,1,1.97-26.5872c7.3709-8.2963,18.6535-11.3269,29.9537-6.8641,6.8586,2.7087,12.59,7.1293,18.0075,12.0022,1.4637,1.3164,1.4988,1.3574,2.9865-.4549-.3762-.28-.786-.5663-1.1764-.8771-3.2114-2.5569-6.2861-5.3116-9.6591-7.633-5.0585-3.4814-10.528-6.2576-16.7633-6.8508-11.8-1.1226-21.3424,2.8827-27.9462,12.9657a23.3605,23.3605,0,0,0,1.17,26.3868A28.4338,28.4338,0,0,0,263.239,457h12.2627a33.8367,33.8367,0,0,0,3.3612-.79A43.0856,43.0856,0,0,0,294.7454,447.5872Z" fill="currentColor"/>
    <path d="M202.7444,443.0507A48.8,48.8,0,0,0,195.28,453.385,29.0677,29.0677,0,0,0,193.6772,457h2.3089c.1837-.4625.3769-.9247.5906-1.3859a43.8918,43.8918,0,0,1,7.8361-11.0337c.8188-.8935.3-1.2652-.22-1.8513C203.4825,441.9274,203.1223,442.641,202.7444,443.0507Z" fill="currentColor"/>
    <path d="M502.533,430.8075c4.1326-3.7323,8.2349-7.4914,13.265-10.0529,7.0911-3.611,15.0406-2.76,20.5911,2.3524a13.5547,13.5547,0,0,1,4.6692,9.3483,14.1171,14.1171,0,0,1-8.9337,14.1308c-5.7118,2.4553-11.3743,2.0377-16.9424-.5423a43.8892,43.8892,0,0,1-11.0336-7.8362c-.8936-.8187-1.2653-.3-1.8514.2195-.8017.7108-.088,1.0711.3216,1.449a48.8057,48.8057,0,0,0,10.3343,7.4648c6.0489,3.1806,12.3823,4.0414,18.9094,1.7892,12.0464-4.1569,15.9557-18.0887,6.5917-27.3358-5.4806-5.4122-14.8666-6.8588-22.22-3.59a46.475,46.475,0,0,0-12.0809,8.134c-5.603,5.0244-11.0673,10.2033-16.6064,15.2993-4.7038,4.3275-9.6168,8.3923-15.4205,11.1855-6.63,3.1911-13.5542,4.5859-20.8891,2.9967-6.5352-1.4159-11.96-4.6293-15.7008-10.2317a21.7552,21.7552,0,0,1,1.9695-26.5872c7.3709-8.2963,18.6535-11.3269,29.9537-6.8641,6.8586,2.7087,12.59,7.1293,18.0075,12.0022,1.4637,1.3164,1.4988,1.3574,2.9865-.4549-.3762-.28-.786-.5663-1.1764-.8771-3.2114-2.5569-6.2861-5.3116-9.6591-7.633-5.0585-3.4814-10.528-6.2576-16.7633-6.8508-11.8-1.1226-21.3424,2.8827-27.9462,12.9657a23.3605,23.3605,0,0,0,1.17,26.3868A28.0052,28.0052,0,0,0,447.462,457h20.049a43.0642,43.0642,0,0,0,15.2344-8.4128C489.4818,442.825,495.9518,436.7512,502.533,430.8075Z" fill="currentColor"/>
    <path d="M564,415.9659v-5.7445a29.4293,29.4293,0,0,1,0-20.6327v-5.0318a31.772,31.772,0,0,0-2.59,24.7379A43.4662,43.4662,0,0,0,564,415.9659Z" fill="currentColor"/>
    <path d="M483.1806,402.3329c8.4551,3.2248,16.3174,1.6861,23.2562-3.8807,10.7617-8.6339,13.9848-22.918,8.3487-35.56a63.43,63.43,0,0,0-10.16-15.428c-4.9307-5.733-10.0881-11.2711-15.1487-16.8923-3.3665-3.7393-6.7582-7.4586-9.1688-11.9328-2.8406-5.272-3.7326-10.7411-1.7246-16.5237,3.2721-9.4226,14.22-12.9865,22.0235-7.0035,5.5746,4.274,7.1829,10.21,6.1729,16.9523-.6671,4.4538-2.9824,8.1856-5.5844,11.7311-1.3089,1.7837-2.8116,3.4251-4.307,5.2279l1.5567,1.4892a49.0887,49.0887,0,0,0,7.43-9.9453c4.4314-8.2229,4.8428-16.3681-.8279-24.2588a15.8167,15.8167,0,0,0-20.5113-4.7458c-5.8563,3.355-8.6061,8.7915-9.1789,15.3623A22.5659,22.5659,0,0,0,480.1,322.5737c3.5157,4.7326,7.4549,9.1677,11.4044,13.5569,5.3412,5.9358,10.8937,11.681,15.6262,18.1406a49.2749,49.2749,0,0,1,6.779,12.2377,26.539,26.539,0,0,1-11.4647,31.767c-7.8786,4.4632-15.764,4.3056-23.2667-1.0084a23.6754,23.6754,0,0,1-8.73-12.538c-2.404-7.45-1.2971-14.631,1.7713-21.6226a56.7073,56.7073,0,0,1,10.7224-15.5794c.2755-.2979.5471-.6.8156-.8941l-1.3961-1.4442a1.2956,1.2956,0,0,0-.2646.1265c-.2008.1781-.4007.3585-.5871.5513a55.0866,55.0866,0,0,0-11.6041,17.1623c-4.0217,9.6879-4.0985,19.2612,1.223,28.5467A23.49,23.49,0,0,0,483.1806,402.3329Z" fill="currentColor"/>
    <path d="M501.4817,335.8992c-1.3165,1.4637-1.3574,1.4988.4548,2.9865.28-.3762.5663-.786.8772-1.1764,2.5568-3.2114,5.3115-6.2861,7.633-9.6592,3.4813-5.0584,6.2575-10.5279,6.8507-16.7632,1.1227-11.8-2.8827-21.3424-12.9657-27.9462a23.36,23.36,0,0,0-26.3868,1.17c-9.7525,7.6127-13.0908,20.7547-9.5346,32.784a43.0871,43.0871,0,0,0,8.6229,15.8825c5.7623,6.7363,11.8361,13.2064,17.78,19.7875,3.7323,4.1327,7.4915,8.235,10.0529,13.2651,3.6111,7.0911,2.76,15.0405-2.3523,20.5911a13.5551,13.5551,0,0,1-9.3484,4.6692,14.117,14.117,0,0,1-14.1307-8.9337c-2.4554-5.7118-2.0378-11.3743.5423-16.9424a43.8918,43.8918,0,0,1,7.8361-11.0337c.8188-.8935.3-1.2652-.2195-1.8513-.7108-.8017-1.071-.0881-1.4489.3216A48.8,48.8,0,0,0,478.28,363.385c-3.18,6.0489-4.0413,12.3823-1.7891,18.9093,4.1569,12.0465,18.0886,15.9558,27.3358,6.5917,5.4121-5.4805,6.8587-14.8665,3.59-22.22a46.4736,46.4736,0,0,0-8.134-12.0808c-5.0244-5.603-10.2033-11.0673-15.2993-16.6064-4.3275-4.7038-8.3922-9.6169-11.1855-15.4205-3.1911-6.63-4.5858-13.5542-2.9967-20.8891,1.4159-6.5352,4.6293-11.9605,10.2317-15.7009a21.7553,21.7553,0,0,1,26.5872,1.97c8.2963,7.3708,11.3269,18.6535,6.8641,29.9537C510.7751,324.75,506.3546,330.4816,501.4817,335.8992Z" fill="currentColor"/>
    <path d="M543.1441,271.4919A23.4893,23.4893,0,0,0,553.901,259.44c3.2249-8.4551,1.6862-16.3174-3.8807-23.2562-8.6339-10.7617-22.9179-13.9848-35.56-8.3487a63.4292,63.4292,0,0,0-15.428,10.16c-5.733,4.9307-11.2711,10.0881-16.8924,15.1487-3.7393,3.3665-7.4586,6.7583-11.9328,9.1689-5.272,2.8405-10.741,3.7325-16.5237,1.7245-9.4226-3.272-12.9864-14.22-7.0035-22.0235,4.2741-5.5746,10.21-7.1829,16.9524-6.1729,4.4537.6671,8.1855,2.9825,11.731,5.5844,1.7837,1.309,3.4251,2.8116,5.2279,4.3071l1.4892-1.5567a49.085,49.085,0,0,0-9.9453-7.43c-8.2229-4.4315-16.3681-4.8429-24.2588.8278a15.8168,15.8168,0,0,0-4.7458,20.5113c3.355,5.8563,8.7916,8.6062,15.3623,9.1789a22.5654,22.5654,0,0,0,15.6493-4.7433c4.7327-3.5157,9.1677-7.4549,13.5569-11.4044,5.9359-5.3412,11.6811-10.8937,18.1406-15.6262a49.2781,49.2781,0,0,1,12.2377-6.779,26.5389,26.5389,0,0,1,31.767,11.4647c4.4633,7.8786,4.3057,15.7641-1.0084,23.2667a23.6752,23.6752,0,0,1-12.538,8.7305c-7.45,2.4039-14.631,1.297-21.6226-1.7714a56.7073,56.7073,0,0,1-15.5794-10.7224c-.2979-.2755-.6-.5471-.8941-.8156l-1.4442,1.3961a1.284,1.284,0,0,0,.1266.2646c.178.2008.3584.4007.5512.5871a55.0886,55.0886,0,0,0,17.1623,11.6042C524.2853,276.7366,533.8586,276.8134,543.1441,271.4919Z" fill="currentColor"/>
    <path d="M561.8629,366.21q1.0814-.32,2.1371-.6928v-2.3421a30.3859,30.3859,0,0,1-17.7626,1.6444c-6.5352-1.4159-11.9605-4.6293-15.7008-10.2317a21.7552,21.7552,0,0,1,1.9695-26.5872c7.3709-8.2963,18.6535-11.3269,29.9537-6.8641.5238.2069,1.0292.4419,1.54.6682v-2.4065a28.6317,28.6317,0,0,0-8.145-2.0753c-11.8-1.1226-21.3424,2.8827-27.9462,12.9657a23.3605,23.3605,0,0,0,1.17,26.3868C536.6916,366.428,549.8336,369.7664,561.8629,366.21Z" fill="currentColor"/>
    <path d="M221.6252,437.4638c-4.9307-5.733-10.0881-11.2711-15.1487-16.8923-3.3665-3.7393-6.7582-7.4586-9.1688-11.9328-2.8406-5.272-3.7326-10.7411-1.7246-16.5237,3.2721-9.4226,14.22-12.9865,22.0235-7.0035,5.5746,4.274,7.1829,10.21,6.1729,16.9523-.6671,4.4538-2.9824,8.1856-5.5844,11.7311-1.3089,1.7837-2.8116,3.4251-4.307,5.2279l1.5567,1.4892a49.0887,49.0887,0,0,0,7.43-9.9453c4.4314-8.2229,4.8428-16.3681-.8279-24.2588a15.8167,15.8167,0,0,0-20.5113-4.7458c-5.8563,3.355-8.6061,8.7915-9.1789,15.3623A22.5659,22.5659,0,0,0,197.1,412.5737c3.5157,4.7326,7.4549,9.1677,11.4044,13.5569,5.3412,5.9358,10.8937,11.681,15.6262,18.1406a49.2749,49.2749,0,0,1,6.779,12.2377c.06.1636.11.3274.1657.4911h2.1956a32.0138,32.0138,0,0,0-1.4857-4.1082A63.43,63.43,0,0,0,221.6252,437.4638Z" fill="currentColor"/>
    <path d="M563.8629,183.21c.0463-.0137.0909-.0307.1371-.0445v-2.275a29.77,29.77,0,0,1-15.7626.929c-6.5352-1.4159-11.9605-4.6293-15.7008-10.2317a21.7552,21.7552,0,0,1,1.9695-26.5872c7.2708-8.1837,18.3482-11.2288,29.4939-7.0268v-2.3173a27.6851,27.6851,0,0,0-6.145-1.3336c-11.8-1.1226-21.3424,2.8827-27.9462,12.9657a23.3605,23.3605,0,0,0,1.17,26.3868C538.6916,183.428,551.8336,186.7664,563.8629,183.21Z" fill="currentColor"/>
    <path d="M542.876,146.5732a15.8168,15.8168,0,0,0-4.7458,20.5113c3.355,5.8563,8.7916,8.6062,15.3623,9.1789A21.4006,21.4006,0,0,0,564,174.5106v-2.5879a19.412,19.412,0,0,1-15.3169,1.1146c-9.4226-3.272-12.9864-14.22-7.0035-22.0235,4.2741-5.5746,10.21-7.1829,16.9524-6.1729A19.5189,19.5189,0,0,1,564,146.5132V144.255C556.8431,141.3094,549.7626,141.6241,542.876,146.5732Z" fill="currentColor"/>
    <path d="M563.41,226.2948c.1814.6136.3831,1.2176.59,1.8191v-22.318A32.3987,32.3987,0,0,0,563.41,226.2948Z" fill="currentColor"/>
    <path d="M564,38.1018V29.869A32.7212,32.7212,0,0,0,564,38.1018Z" fill="currentColor"/>
    <path d="M564,106.8884v-8.24A29.67,29.67,0,0,0,564,106.8884Z" fill="currentColor"/>
    <path d="M544.848,88.7377a23.49,23.49,0,0,0,10.7569-12.052c3.2249-8.4552,1.6862-16.3175-3.8807-23.2563-8.6339-10.7617-22.9179-13.9848-35.56-8.3487a63.4317,63.4317,0,0,0-15.4281,10.16c-5.733,4.9307-11.271,10.0881-16.8922,15.1488-3.7394,3.3664-7.4587,6.7581-11.9328,9.1688-5.2721,2.8405-10.7412,3.7325-16.5238,1.7245-9.4226-3.2721-12.9864-14.22-7.0035-22.0235,4.274-5.5746,10.21-7.1829,16.9524-6.1729,4.4537.6671,8.1855,2.9825,11.7311,5.5844,1.7835,1.3089,3.425,2.8116,5.2277,4.3071l1.4894-1.5568a49.0958,49.0958,0,0,0-9.9454-7.43c-8.2229-4.4314-16.3681-4.8428-24.2587.8279A15.8167,15.8167,0,0,0,444.8341,75.33c3.3549,5.8563,8.7915,8.6062,15.3623,9.1789a22.5649,22.5649,0,0,0,15.6493-4.7433c4.7327-3.5157,9.1677-7.4549,13.5569-11.4044,5.9358-5.3412,11.6811-10.8937,18.1406-15.6262a49.2732,49.2732,0,0,1,12.2377-6.7789,26.5389,26.5389,0,0,1,31.767,11.4646c4.4633,7.8786,4.3057,15.7641-1.0085,23.2667a23.6745,23.6745,0,0,1-12.5379,8.73c-7.45,2.4039-14.631,1.297-21.6226-1.7714A56.7088,56.7088,0,0,1,500.8,76.9244c-.298-.2755-.6-.5471-.8941-.8156l-1.4442,1.3961a1.292,1.292,0,0,0,.1266.2646c.1779.2008.3584.4007.5512.5871a55.0869,55.0869,0,0,0,17.1623,11.6042C525.9893,93.9825,535.5624,94.0592,544.848,88.7377Z" fill="currentColor"/>
    <path d="M486.4493,82.833c6.7364-5.7623,13.2063-11.8361,19.7875-17.78C510.37,61.321,514.4719,57.5619,519.502,55c7.091-3.6111,15.0405-2.76,20.591,2.3524a13.554,13.554,0,0,1,4.6691,9.3484,14.1167,14.1167,0,0,1-8.9337,14.1306c-5.7117,2.4554-11.3742,2.0378-16.9423-.5422a43.8933,43.8933,0,0,1-11.0337-7.8362c-.8935-.8187-1.2652-.3-1.8513.2195-.8017.7109-.0881,1.0711.3215,1.449a48.8089,48.8089,0,0,0,10.3344,7.4648c6.0489,3.1806,12.3824,4.0414,18.9093,1.7892,12.0466-4.1569,15.9559-18.0887,6.5917-27.3359-5.4805-5.4121-14.8665-6.8587-22.22-3.59a46.4772,46.4772,0,0,0-12.081,8.134c-5.6029,5.0245-11.0672,10.2033-16.6063,15.2993-4.7038,4.3275-9.6169,8.3923-15.4205,11.1855-6.63,3.1911-13.5542,4.5859-20.8891,2.9967-6.5352-1.4159-11.9605-4.6293-15.7008-10.2317A21.755,21.755,0,0,1,441.21,53.2466c7.3708-8.2964,18.6535-11.327,29.9536-6.8642,6.8587,2.7087,12.59,7.1293,18.0077,12.0022,1.4636,1.3164,1.4987,1.3574,2.9864-.4549-.3763-.28-.786-.5662-1.1764-.8771-3.2113-2.5569-6.2861-5.3116-9.6592-7.633-5.0584-3.4814-10.5278-6.2576-16.7632-6.8508-11.8-1.1226-21.3424,2.8827-27.9462,12.9657a23.3607,23.3607,0,0,0,1.17,26.3868c7.6127,9.7525,20.7547,13.0908,32.784,9.5346A43.0864,43.0864,0,0,0,486.4493,82.833Z" fill="currentColor"/>
    <path d="M564,274.43c-2.5447,7.3235-2.7523,14.5725,0,21.6727Z" fill="currentColor"/>
    <path d="M33.6252,436.4638c-4.9307-5.733-10.0881-11.2711-15.1487-16.8923-3.3665-3.7393-6.7582-7.4586-9.1688-11.9328-2.8406-5.272-3.7326-10.7411-1.7246-16.5237,3.2721-9.4226,14.22-12.9865,22.0235-7.0035,5.5746,4.274,7.1829,10.21,6.1729,16.9523-.6671,4.4538-2.9824,8.1856-5.5844,11.7311-1.3089,1.7837-2.8116,3.4251-4.307,5.2279l1.5567,1.4892a49.0887,49.0887,0,0,0,7.43-9.9453c4.4314-8.2229,4.8428-16.3681-.8279-24.2588a15.8167,15.8167,0,0,0-20.5113-4.7458C7.68,383.9171,4.93,389.3536,4.357,395.9244A22.5659,22.5659,0,0,0,9.1,411.5737c3.5157,4.7326,7.4549,9.1677,11.4044,13.5569,5.3412,5.9358,10.8937,11.681,15.6262,18.1406a49.2749,49.2749,0,0,1,6.779,12.2377c.1809.4966.34.9938.4884,1.4911h2.1561a31.8977,31.8977,0,0,0-1.7689-5.1082A63.43,63.43,0,0,0,33.6252,436.4638Z" fill="currentColor"/>
    <path d="M485.1806,219.3329c8.4551,3.2248,16.3174,1.6861,23.2562-3.8807,10.7617-8.6339,13.9848-22.918,8.3487-35.56a63.43,63.43,0,0,0-10.16-15.428c-4.9307-5.733-10.0881-11.2711-15.1487-16.8923-3.3665-3.7393-6.7582-7.4586-9.1688-11.9328-2.8406-5.272-3.7326-10.7411-1.7246-16.5237,3.2721-9.4226,14.22-12.9865,22.0235-7.0035,5.5746,4.274,7.1829,10.21,6.1729,16.9523-.6671,4.4538-2.9824,8.1856-5.5844,11.7311-1.3089,1.7837-2.8116,3.4251-4.307,5.2279l1.5567,1.4892a49.0887,49.0887,0,0,0,7.43-9.9453c4.4314-8.2229,4.8428-16.3681-.8279-24.2588a15.8167,15.8167,0,0,0-20.5113-4.7458c-5.8563,3.355-8.6061,8.7915-9.1789,15.3623A22.5659,22.5659,0,0,0,482.1,139.5737c3.5157,4.7326,7.4549,9.1677,11.4044,13.5569,5.3412,5.9358,10.8937,11.681,15.6262,18.1406a49.2749,49.2749,0,0,1,6.779,12.2377,26.539,26.539,0,0,1-11.4647,31.767c-7.8786,4.4632-15.764,4.3056-23.2667-1.0084a23.6754,23.6754,0,0,1-8.73-12.538c-2.404-7.45-1.2971-14.631,1.7713-21.6226a56.7073,56.7073,0,0,1,10.7224-15.5794c.2755-.2979.5471-.6.8156-.8941l-1.3961-1.4442a1.2956,1.2956,0,0,0-.2646.1265c-.2008.1781-.4007.3585-.5871.5513a55.0866,55.0866,0,0,0-11.6041,17.1623c-4.0217,9.6879-4.0985,19.2612,1.223,28.5467A23.49,23.49,0,0,0,485.1806,219.3329Z" fill="currentColor"/>
    <path d="M503.4817,152.8992c-1.3165,1.4637-1.3574,1.4988.4548,2.9865.28-.3762.5663-.786.8772-1.1764,2.5568-3.2114,5.3115-6.2861,7.633-9.6592,3.4813-5.0584,6.2575-10.5279,6.8507-16.7632,1.1227-11.8-2.8827-21.3424-12.9657-27.9462a23.36,23.36,0,0,0-26.3868,1.17c-9.7525,7.6127-13.0908,20.7547-9.5346,32.784a43.0871,43.0871,0,0,0,8.6229,15.8825c5.7623,6.7363,11.8361,13.2064,17.78,19.7875,3.7323,4.1327,7.4915,8.235,10.0529,13.2651,3.6111,7.0911,2.76,15.0405-2.3523,20.5911a13.5551,13.5551,0,0,1-9.3484,4.6692,14.117,14.117,0,0,1-14.1307-8.9337c-2.4554-5.7118-2.0378-11.3743.5423-16.9424a43.8918,43.8918,0,0,1,7.8361-11.0337c.8188-.8935.3-1.2652-.2195-1.8513-.7108-.8017-1.071-.0881-1.4489.3216A48.8,48.8,0,0,0,480.28,180.385c-3.18,6.0489-4.0413,12.3823-1.7891,18.9093,4.1569,12.0465,18.0886,15.9558,27.3358,6.5917,5.4121-5.4805,6.8587-14.8665,3.59-22.22a46.4736,46.4736,0,0,0-8.134-12.0808c-5.0244-5.603-10.2033-11.0673-15.2993-16.6064-4.3275-4.7038-8.3922-9.6169-11.1855-15.4205-3.1911-6.63-4.5858-13.5542-2.9967-20.8891,1.4159-6.5352,4.6293-11.9605,10.2317-15.7009a21.7553,21.7553,0,0,1,26.5872,1.97c8.2963,7.3708,11.3269,18.6535,6.8641,29.9537C512.7751,141.75,508.3546,147.4816,503.4817,152.8992Z" fill="currentColor"/>
    <path d="M286.8324,24.8218a23.4905,23.4905,0,0,0,12.0521,10.7569c8.4551,3.2249,16.3174,1.6862,23.2562-3.8807A29.3287,29.3287,0,0,0,331.899,0h-2.2025a26.5405,26.5405,0,0,1-11.5474,31.5217c-7.8786,4.4633-15.764,4.3056-23.2667-1.0085a23.6744,23.6744,0,0,1-8.73-12.5379A28.1405,28.1405,0,0,1,286.5193,0h-2.2582A30.0442,30.0442,0,0,0,286.8324,24.8218Z" fill="currentColor"/>
    <path d="M375.4626,0H360.847A32.6566,32.6566,0,0,0,375.4626,0Z" fill="currentColor"/>
    <path d="M318.2173,20.0668a13.5543,13.5543,0,0,1-9.3483,4.6692,14.1172,14.1172,0,0,1-14.1307-8.9338A19.6821,19.6821,0,0,1,294.7855,0h-2.3164a22.3481,22.3481,0,0,0-.2748,15.54c4.1568,12.0465,18.0886,15.9557,27.3358,6.5916C324.921,16.6729,326.3741,7.34,323.1553,0h-2.3409C324.1241,6.9566,323.2043,14.652,318.2173,20.0668Z" fill="currentColor"/>
    <path d="M130.2173,19.0668a13.5543,13.5543,0,0,1-9.3483,4.6692,14.1172,14.1172,0,0,1-14.1307-8.9338A19.4853,19.4853,0,0,1,106.4,0H104.121a22.2144,22.2144,0,0,0,.0733,14.54c4.1568,12.0465,18.0886,15.9557,27.3358,6.5916C136.68,15.9173,138.23,7.1708,135.5534,0h-2.2876C136.032,6.6852,134.9662,13.9106,130.2173,19.0668Z" fill="currentColor"/>
    <path d="M540.876,329.5732a15.8168,15.8168,0,0,0-4.7458,20.5113c3.355,5.8563,8.7916,8.6062,15.3623,9.1789A21.7293,21.7293,0,0,0,564,356.5249v-2.67c-.2645.1523-.5233.312-.7932.4574-5.272,2.8405-10.741,3.7325-16.5237,1.7245-9.4226-3.272-12.9864-14.22-7.0035-22.0235,4.2741-5.5746,10.21-7.1829,16.9524-6.1729A21.0991,21.0991,0,0,1,564,330.5443v-2.3758C556.1628,324.2983,548.4035,324.1636,540.876,329.5732Z" fill="currentColor"/>
    <path d="M98.8324,23.8218a23.4905,23.4905,0,0,0,12.0521,10.7569c8.4551,3.2249,16.3174,1.6862,23.2562-3.8807A29.31,29.31,0,0,0,144.2034,0h-2.1712a26.5612,26.5612,0,0,1-11.8831,30.5217c-7.8786,4.4633-15.764,4.3056-23.2667-1.0085a23.6744,23.6744,0,0,1-8.73-12.5379A27.8217,27.8217,0,0,1,98.2051,0H95.9758A29.885,29.885,0,0,0,98.8324,23.8218Z" fill="currentColor"/>
    <path d="M508.57.4758c3.611,7.091,2.76,15.04-2.3525,20.591a13.5543,13.5543,0,0,1-9.3483,4.6692,14.1172,14.1172,0,0,1-14.1307-8.9338C480.3035,11.1384,480.6968,5.523,483.2192,0h-2.3531a22.5191,22.5191,0,0,0-.6718,16.54c4.1568,12.0465,18.0886,15.9557,27.3358,6.5916,5.4121-5.48,6.8587-14.8665,3.59-22.22-.1372-.3089-.2882-.6085-.4334-.912h-2.3786C508.3932.16,508.4872.3136,508.57.4758Z" fill="currentColor"/>
    <path d="M564,.861V0H545.399A32.2926,32.2926,0,0,0,564,.861Z" fill="currentColor"/>
    <path d="M443.8085,0H429.6143A29.9614,29.9614,0,0,0,443.8085,0Z" fill="currentColor"/>
    <path d="M474.8324,25.8218a23.4905,23.4905,0,0,0,12.0521,10.7569c8.4551,3.2249,16.3174,1.6862,23.2562-3.8807A29.3717,29.3717,0,0,0,519.59,0h-2.27c.0977.2518.2016.5.2944.7547a26.539,26.539,0,0,1-11.4647,31.767c-7.8786,4.4633-15.764,4.3056-23.2667-1.0085a23.6744,23.6744,0,0,1-8.73-12.5379c-2.1016-6.5129-1.52-12.82.71-18.9753h-2.2679C469.6328,8.7575,470.0105,17.408,474.8324,25.8218Z" fill="currentColor"/>
  </g>
</svg>
